<svg width="40" height="40" viewBox="0 0 40 40" fill="none" xmlns="http://www.w3.org/2000/svg">
<path d="M20 40C17.3003 40 14.681 39.4703 12.2149 38.4257C9.83324 37.4168 7.69442 35.9727 5.85787 34.1333C4.02128 32.294 2.57929 30.152 1.57193 27.7668C0.528887 25.297 0 22.6738 0 19.97C0 14.8957 1.89816 10.0551 5.3448 6.33984C8.77303 2.64445 13.4166 0.393543 18.4202 0.00178786C18.604 -0.0125225 18.784 0.0596618 18.9071 0.197216C19.0301 0.334771 19.082 0.521921 19.0476 0.703324C19.0166 0.866528 19.0009 1.03157 19.0009 1.1939C19.0009 2.63166 20.1688 3.80136 21.6044 3.80136C22.0377 3.80136 22.45 3.69817 22.83 3.49463C23.0097 3.39831 23.2264 3.40152 23.4034 3.50311C23.5803 3.60472 23.6925 3.79041 23.7003 3.99451C23.7819 6.12886 25.4484 7.83332 27.5766 7.95923C27.7613 7.97018 27.9303 8.06703 28.0333 8.22099C28.1363 8.37498 28.1615 8.56833 28.1012 8.74359C27.9529 9.17553 27.8776 9.62817 27.8776 10.089C27.8776 12.3682 29.7292 14.2226 32.0051 14.2226C32.8157 14.2226 33.6003 13.9873 34.2742 13.5421C34.4395 13.4329 34.6484 13.4137 34.8308 13.491C35.0131 13.5684 35.1448 13.7319 35.1815 13.9268C35.4244 15.2155 36.5524 16.1509 37.8638 16.1509C38.2138 16.1509 38.5557 16.0847 38.8801 15.9543C39.0452 15.8879 39.2314 15.8995 39.387 15.9858C39.5427 16.0721 39.6514 16.2239 39.6829 16.3993C39.8933 17.5701 40 18.7715 40 19.97C40 22.6738 39.4711 25.297 38.4281 27.7667C37.4207 30.152 35.9787 32.294 34.1421 34.1333C32.3056 35.9726 30.1668 37.4168 27.7851 38.4257C25.319 39.4703 22.6997 40 20 40ZM17.8179 1.2509C8.43459 2.34004 1.18343 10.4301 1.18343 19.97C1.18343 30.3611 9.6245 38.8148 20 38.8148C30.3755 38.8148 38.8165 30.3611 38.8165 19.97C38.8165 19.0634 38.7517 18.1554 38.6235 17.2619C38.3745 17.3113 38.1206 17.3361 37.8637 17.3361C36.2552 17.3361 34.8389 16.3538 34.2455 14.9124C33.5476 15.2381 32.7856 15.4078 32.0051 15.4078C29.0766 15.4078 26.6942 13.0218 26.6942 10.089C26.6942 9.73868 26.7281 9.39184 26.7953 9.0518C25.7507 8.84612 24.7884 8.32896 24.0325 7.55692C23.2981 6.80693 22.8078 5.86642 22.611 4.85006C22.2842 4.94013 21.945 4.98658 21.6044 4.98658C19.5353 4.98658 17.8484 3.31603 17.8179 1.2509Z" fill="#414042"/>
<path d="M12.2186 9.53999C12.4248 8.66666 11.884 7.79152 11.0107 7.58531C10.1374 7.37909 9.26222 7.91989 9.05601 8.79321C8.84979 9.66654 9.39059 10.5417 10.2639 10.7479C11.1372 10.9541 12.0124 10.4133 12.2186 9.53999Z" fill="#414042"/>
<path d="M12.3743 30.6602C13.7469 29.2876 13.7469 27.062 12.3743 25.6894C11.0016 24.3167 8.77608 24.3167 7.40341 25.6894C6.03074 27.062 6.03073 29.2876 7.4034 30.6602C8.77607 32.0329 11.0016 32.0329 12.3743 30.6602Z" fill="#414042"/>
<path d="M22.1146 36.6746C23.2394 36.6746 24.1511 35.7628 24.1511 34.6381C24.1511 33.5133 23.2394 32.6016 22.1146 32.6016C20.9899 32.6016 20.0781 33.5133 20.0781 34.6381C20.0781 35.7628 20.9899 36.6746 22.1146 36.6746Z" fill="#414042"/>
<path d="M20.4001 14.7693C21.5593 13.6101 21.5593 11.7307 20.4001 10.5715C19.2409 9.41237 17.3616 9.41237 16.2024 10.5715C15.0432 11.7307 15.0432 13.6101 16.2024 14.7693C17.3616 15.9284 19.2409 15.9284 20.4001 14.7693Z" fill="#414042"/>
<path d="M33.0835 29.6308C34.7422 29.6308 36.0868 28.2861 36.0868 26.6274C36.0868 24.9687 34.7422 23.624 33.0835 23.624C31.4247 23.624 30.0801 24.9687 30.0801 26.6274C30.0801 28.2861 31.4247 29.6308 33.0835 29.6308Z" fill="#414042"/>
<path d="M26.3786 22.1758C27.3774 22.1758 28.187 21.3661 28.187 20.3674C28.187 19.3687 27.3774 18.5591 26.3786 18.5591C25.3799 18.5591 24.5703 19.3687 24.5703 20.3674C24.5703 21.3661 25.3799 22.1758 26.3786 22.1758Z" fill="#414042"/>
<path d="M17.9167 25.6494C19.0352 25.6494 19.9419 24.7427 19.9419 23.6243C19.9419 22.5058 19.0352 21.5991 17.9167 21.5991C16.7983 21.5991 15.8916 22.5058 15.8916 23.6243C15.8916 24.7427 16.7983 25.6494 17.9167 25.6494Z" fill="#414042"/>
<path d="M8.04791 18.3346C8.81057 18.3346 9.42883 17.7163 9.42883 16.9537C9.42883 16.191 8.81057 15.5728 8.04791 15.5728C7.28525 15.5728 6.66699 16.191 6.66699 16.9537C6.66699 17.7163 7.28525 18.3346 8.04791 18.3346Z" fill="#414042"/>
</svg>
