<svg width="526" height="304" viewBox="0 0 526 304" fill="none" xmlns="http://www.w3.org/2000/svg">
<g filter="url(#filter0_d_958_172796)">
<rect x="4.83716" y="2.41895" width="516" height="294" rx="22" fill="#F7F9FC" shape-rendering="crispEdges"/>
<rect x="5.44181" y="3.0236" width="514.791" height="292.791" rx="21.3953" stroke="#C5CDDB" stroke-width="1.2093" shape-rendering="crispEdges"/>
<g clip-path="url(#clip0_958_172796)">
<rect x="10.8372" y="8.41895" width="504" height="204" fill="#DDE3ED"/>
<g clip-path="url(#clip1_958_172796)">
<g clip-path="url(#clip2_958_172796)">
<g clip-path="url(#clip3_958_172796)">
<mask id="mask0_958_172796" style="mask-type:luminance" maskUnits="userSpaceOnUse" x="192" y="-231" width="551" height="737">
<path d="M501.28 -230.222L742.749 -108.975L434.245 505.421L192.776 384.173L501.28 -230.222Z" fill="white"/>
</mask>
<g mask="url(#mask0_958_172796)">
<mask id="mask1_958_172796" style="mask-type:alpha" maskUnits="userSpaceOnUse" x="141" y="-330" width="644" height="886">
<path d="M520.051 -328.443L782.789 -196.516L405.854 554.164L143.116 422.236L520.051 -328.443Z" fill="#C4C4C4" stroke="url(#paint0_linear_958_172796)" stroke-width="2"/>
</mask>
<g mask="url(#mask1_958_172796)">
<path d="M432.011 504.299C432.279 504.434 432.503 504.434 432.771 504.345C433.308 504.167 433.577 503.631 433.399 503.094L339.272 233.264C321.114 181.401 324.562 126.176 348.838 77.8285C373.115 29.4812 415.303 -6.17955 467.789 -22.682L740.377 -108.263C740.914 -108.441 741.184 -108.977 741.006 -109.514C740.828 -110.051 740.291 -110.32 739.754 -110.142L467.166 -24.5614C414.188 -7.97029 371.552 28.1369 347.051 76.931C322.55 125.725 319.056 181.487 337.393 233.887L431.52 503.717C431.609 503.985 431.832 504.209 432.011 504.299Z" fill="url(#paint1_linear_958_172796)"/>
<path d="M432.011 504.299C432.279 504.434 432.502 504.434 432.771 504.345C433.308 504.167 433.577 503.631 433.399 503.094L339.272 233.264C321.114 181.401 324.562 126.176 348.838 77.8285C373.114 29.4812 415.303 -6.17955 467.789 -22.682L740.377 -108.263C740.914 -108.441 741.183 -108.977 741.005 -109.514C740.827 -110.051 740.291 -110.32 739.754 -110.142L467.166 -24.5614C414.188 -7.97029 371.551 28.1369 347.051 76.931C322.55 125.725 319.056 181.487 337.392 233.887L431.52 503.717C431.609 503.985 431.832 504.209 432.011 504.299Z" fill="url(#paint2_linear_958_172796)"/>
<path d="M432.011 504.299C432.279 504.434 432.502 504.434 432.771 504.345C433.308 504.167 433.577 503.631 433.399 503.094L339.272 233.264C321.114 181.401 324.562 126.176 348.838 77.8285C373.114 29.4812 415.303 -6.17955 467.789 -22.682L740.377 -108.263C740.914 -108.441 741.183 -108.977 741.005 -109.514C740.827 -110.051 740.291 -110.32 739.754 -110.142L467.166 -24.5614C414.188 -7.97029 371.551 28.1369 347.051 76.931C322.55 125.725 319.056 181.487 337.392 233.887L431.52 503.717C431.609 503.985 431.832 504.209 432.011 504.299Z" fill="#8DAEFF"/>
<path d="M439.954 488.258C440.222 488.392 440.446 488.393 440.714 488.304C441.251 488.126 441.52 487.59 441.342 487.053L352.243 231.944C334.397 180.574 337.8 125.885 361.852 77.9847C385.904 30.0842 427.734 -5.30877 479.683 -21.6333L737.908 -102.677C738.445 -102.855 738.714 -103.391 738.536 -103.928C738.358 -104.465 737.822 -104.734 737.285 -104.556L479.015 -23.4232C426.529 -6.92078 384.296 28.8293 360.02 77.1766C335.743 125.524 332.295 180.749 350.409 232.701L439.463 487.675C439.552 487.944 439.775 488.168 439.954 488.258Z" fill="#8DAEFF"/>
<path d="M447.896 472.664C448.164 472.798 448.388 472.799 448.656 472.71C449.193 472.532 449.462 471.995 449.284 471.458L365.349 230.804C347.547 179.791 350.904 125.639 374.731 78.1857C398.559 30.732 440.075 -4.25903 491.532 -20.4949L734.947 -97.0021C735.484 -97.1801 735.753 -97.7163 735.575 -98.2532C735.397 -98.7902 734.861 -99.0594 734.324 -98.8815L490.954 -22.4636C438.871 -6.09464 397.041 29.2983 372.944 77.2882C348.892 125.189 345.534 180.011 363.424 231.516L447.405 472.081C447.494 472.35 447.717 472.574 447.896 472.664Z" fill="#8DAEFF"/>
<path d="M455.972 457.248C456.24 457.382 456.464 457.383 456.732 457.294C457.269 457.116 457.538 456.58 457.36 456.043L378.365 229.618C360.741 179.142 364.007 125.393 387.611 78.3859C411.214 31.379 452.372 -3.34429 503.382 -19.3573L732.254 -91.1935C732.791 -91.3715 733.06 -91.9077 732.882 -92.4446C732.704 -92.9816 732.168 -93.2508 731.631 -93.0729L502.759 -21.2367C451.212 -5.04567 409.651 30.0347 385.823 77.4884C361.951 125.031 358.683 179.228 376.485 230.241L455.481 456.666C455.57 456.934 455.793 457.158 455.972 457.248Z" fill="#8DAEFF"/>
<path d="M463.914 441.654C464.182 441.788 464.406 441.789 464.674 441.7C465.211 441.522 465.481 440.986 465.303 440.449L391.38 228.657C373.979 178.628 377.2 125.415 400.579 78.8554C423.958 32.2954 464.713 -2.07083 515.23 -17.9953L729.381 -85.2502C729.918 -85.4281 730.188 -85.9643 730.01 -86.5013C729.832 -87.0382 729.296 -87.3075 728.759 -87.1295L514.608 -19.8746C463.598 -3.86157 422.395 30.9511 398.792 77.9579C375.144 125.054 371.877 178.804 389.501 229.279L463.423 441.072C463.512 441.34 463.646 441.519 463.914 441.654Z" fill="#8DAEFF"/>
<path d="M472.036 425.926C472.304 426.061 472.527 426.061 472.796 425.972C473.333 425.794 473.602 425.258 473.424 424.721L404.575 227.561C387.262 178.025 390.527 125.394 413.727 79.191C436.881 33.0779 477.188 -1.06552 527.258 -16.7671L726.241 -79.2177C726.778 -79.3957 727.047 -79.932 726.869 -80.469C726.691 -81.0059 726.155 -81.2752 725.618 -81.0972L526.725 -18.6016C476.118 -2.72205 435.452 31.6891 412.029 78.3384C388.605 124.988 385.384 178.201 402.785 228.229L471.5 425.433C471.589 425.702 471.857 425.836 472.036 425.926Z" fill="#8DAEFF"/>
<path d="M479.977 410.555C480.245 410.69 480.469 410.69 480.738 410.601C481.275 410.423 481.544 409.887 481.366 409.35L417.502 226.331C400.412 177.242 403.676 125.058 426.606 79.3917C449.536 33.7254 489.44 -0.0609356 539.018 -15.6739L723.414 -73.5879C723.951 -73.7658 724.22 -74.302 724.042 -74.839C723.864 -75.3759 723.328 -75.6452 722.791 -75.4672L538.395 -17.5533C488.281 -1.76232 447.973 32.3811 424.774 78.5836C401.574 124.786 398.354 177.552 415.532 227.132L479.442 410.062C479.531 410.331 479.799 410.465 479.977 410.555Z" fill="#8DAEFF"/>
<path d="M487.786 394.558C488.054 394.693 488.278 394.693 488.546 394.604C489.083 394.426 489.352 393.89 489.175 393.353L430.517 225.369C413.516 176.773 416.69 124.991 439.396 79.7714C462.146 34.4626 501.737 1.0782 550.867 -14.3119L720.81 -67.7336C721.347 -67.9115 721.616 -68.4477 721.438 -68.9847C721.26 -69.5216 720.724 -69.7909 720.187 -69.6129L550.289 -16.2806C500.622 -0.712547 460.583 33.1183 437.608 78.8739C414.633 124.63 411.459 176.859 428.593 226.082L487.295 393.976C487.384 394.245 487.518 394.424 487.786 394.558Z" fill="#8DAEFF"/>
<path d="M495.864 378.248C496.132 378.383 496.355 378.383 496.624 378.294C497.161 378.116 497.43 377.58 497.252 377.043L443.802 224.095C427.023 175.946 430.107 124.79 452.633 79.9278C475.159 35.0657 514.347 2.03847 562.985 -13.2631L717.625 -61.8361C718.162 -62.0141 718.431 -62.5503 718.253 -63.0872C718.075 -63.6242 717.539 -63.8934 717.002 -63.7154L562.496 -15.1869C513.366 0.203217 473.731 33.6769 450.98 78.9858C428.229 124.295 425.055 176.077 442.056 224.673L495.373 377.666C495.462 377.935 495.685 378.159 495.864 378.248Z" fill="#8DAEFF"/>
<path d="M503.581 363.325C503.849 363.46 504.073 363.46 504.341 363.371C504.878 363.193 505.147 362.657 504.969 362.12L456.325 223.222C439.68 175.476 442.852 124.812 465.154 80.3967C487.456 35.9815 526.285 3.22197 574.431 -11.9909L715.2 -56.1154C715.737 -56.2934 716.006 -56.8296 715.828 -57.3665C715.65 -57.9035 715.114 -58.1727 714.577 -57.9947L573.764 -13.7809C525.125 1.52059 485.848 34.7266 463.322 79.5886C440.796 124.451 437.667 175.696 454.401 223.934L503.09 362.743C503.179 363.011 503.313 363.19 503.581 363.325Z" fill="#8DAEFF"/>
<path d="M511.703 347.373C511.971 347.508 512.194 347.508 512.463 347.419C513 347.241 513.269 346.705 513.091 346.168L469.744 221.903C453.277 174.694 456.448 124.477 478.481 80.5981C500.558 36.6297 538.984 4.22728 586.594 -10.8077L712.462 -50.4406C712.999 -50.6186 713.269 -51.1548 713.091 -51.6917C712.913 -52.2287 712.376 -52.4979 711.839 -52.3199L585.971 -12.9106C537.736 2.2574 498.996 35.0618 476.649 79.5664C454.302 124.071 451.22 174.78 467.775 222.481L511.212 346.791C511.301 347.059 511.435 347.238 511.703 347.373Z" fill="#8DAEFF"/>
<path d="M519.467 331.241C519.735 331.376 519.959 331.376 520.227 331.287C520.764 331.109 521.033 330.573 520.855 330.036L482.67 220.672C466.381 174 469.418 124.275 491.271 80.7532C513.124 37.2317 551.192 5.09693 598.354 -9.71517L709.411 -44.588C709.948 -44.7659 710.218 -45.3022 710.04 -45.8392C709.862 -46.3761 709.325 -46.6454 708.788 -46.4674L597.731 -11.5945C550.032 3.39554 511.561 35.8874 489.439 79.9451C467.361 123.913 464.279 174.175 480.701 221.474L518.976 330.659C519.065 330.927 519.199 331.106 519.467 331.241Z" fill="#8DAEFF"/>
<path d="M527.543 315.827C527.811 315.961 528.035 315.962 528.303 315.873C528.84 315.695 529.109 315.158 528.931 314.621L495.686 219.487C479.576 173.128 482.566 123.94 504.24 80.7759C525.869 37.7012 563.534 5.92352 610.293 -8.75509L705.779 -38.6903C706.316 -38.8683 706.585 -39.4045 706.407 -39.9415C706.229 -40.4784 705.693 -40.7477 705.156 -40.5697L609.625 -10.5451C562.374 4.22214 524.306 36.3569 502.408 79.9678C480.51 123.579 477.429 173.393 493.762 220.199L527.052 315.244C527.141 315.513 527.275 315.692 527.543 315.827Z" fill="#8DAEFF"/>
<path d="M535.665 299.875C535.933 300.009 536.156 300.01 536.425 299.921C536.962 299.743 537.231 299.207 537.053 298.67L509.015 218.347C493.083 172.525 496.072 123.784 517.477 81.156C538.882 38.5281 576.188 7.01821 622.455 -7.5718L703.488 -33.0147C704.025 -33.1926 704.295 -33.7289 704.117 -34.2659C703.939 -34.8028 703.403 -35.0721 702.866 -34.8941L621.832 -9.45116C575.028 5.31682 537.319 37.1838 515.69 80.2585C494.016 123.423 491.025 172.611 507.136 218.97L535.174 299.292C535.263 299.561 535.397 299.74 535.665 299.875Z" fill="#8DAEFF"/>
<path d="M543.339 283.922C543.607 284.057 543.831 284.057 544.099 283.968C544.636 283.79 544.906 283.254 544.728 282.717L521.852 217.296C506.008 171.966 509.042 123.806 530.267 81.5355C551.447 39.3545 588.35 8.20169 634.125 -6.29971L700.079 -26.8936C700.616 -27.0715 700.886 -27.6078 700.708 -28.1448C700.53 -28.6818 699.993 -28.951 699.456 -28.773L633.547 -8.04483C587.19 6.5003 549.884 38.0102 528.434 80.7274C506.985 123.445 503.995 172.186 520.017 218.053L542.848 283.34C542.937 283.609 543.161 283.832 543.339 283.922Z" fill="#8DAEFF"/>
<path d="M551.282 268.105C551.55 268.239 551.773 268.24 552.042 268.151C552.579 267.973 552.848 267.437 552.67 266.9L534.957 216.155C519.336 171.273 522.235 123.605 543.191 81.8709C564.146 40.1367 600.692 9.2516 645.974 -4.9376L697.476 -21.2629C698.013 -21.4408 698.282 -21.977 698.104 -22.514C697.926 -23.0509 697.39 -23.3202 696.853 -23.1422L645.306 -6.95119C599.487 7.41597 562.539 38.6582 541.314 80.9286C520.089 123.199 517.1 171.493 532.944 216.823L550.746 267.612C550.88 267.791 551.014 267.97 551.282 268.105Z" fill="#8DAEFF"/>
<path d="M559.446 253.404C559.714 253.539 559.938 253.539 560.206 253.45C560.743 253.272 561.012 252.736 560.834 252.199L547.928 215.058C532.441 170.579 535.339 123.358 556.115 81.9814C576.846 40.694 612.988 10.166 657.868 -3.88972L694.828 -15.5439C695.365 -15.7219 695.634 -16.2581 695.456 -16.795C695.278 -17.332 694.742 -17.6012 694.205 -17.4233L657.245 -5.76907C611.873 8.37529 575.328 39.2604 554.328 81.0839C533.282 122.997 530.339 170.754 546.004 215.771L558.91 252.911C559.044 253.091 559.267 253.315 559.446 253.404Z" fill="#8DAEFF"/>
<path d="M567.211 236.826C567.479 236.96 567.703 236.961 567.971 236.872C568.508 236.694 568.777 236.158 568.599 235.621L561.079 213.829C545.769 169.886 548.621 123.202 569.173 82.2719C589.725 41.342 625.464 11.1711 669.851 -2.79604L691.777 -9.69058C692.314 -9.86855 692.583 -10.4048 692.405 -10.9417C692.227 -11.4787 691.691 -11.7479 691.154 -11.5699L669.094 -4.6309C624.17 9.51422 588.028 40.0422 567.251 81.4189C546.475 122.796 543.533 170.106 559.065 214.496L566.72 236.244C566.809 236.512 567.032 236.736 567.211 236.826Z" fill="#8DAEFF"/>
</g>
</g>
</g>
</g>
</g>
<g clip-path="url(#clip4_958_172796)">
<g clip-path="url(#clip5_958_172796)">
<g clip-path="url(#clip6_958_172796)">
<mask id="mask2_958_172796" style="mask-type:luminance" maskUnits="userSpaceOnUse" x="-251" y="-143" width="740" height="514">
<path d="M-146.665 -142.842L-250.163 106.75L384.902 370.091L488.4 120.498L-146.665 -142.842Z" fill="white"/>
</mask>
<g mask="url(#mask2_958_172796)">
<mask id="mask3_958_172796" style="mask-type:alpha" maskUnits="userSpaceOnUse" x="-339" y="-207" width="892" height="597">
<path d="M-225.071 -204.909L-337.685 66.668L438.249 388.422L550.863 116.845L-225.071 -204.909Z" fill="#C4C4C4" stroke="url(#paint3_linear_958_172796)" stroke-width="2"/>
</mask>
<g mask="url(#mask3_958_172796)">
<path d="M385.86 367.78C385.745 368.057 385.576 368.204 385.315 368.312C384.792 368.528 384.238 368.298 384.022 367.776L278.891 102.039C258.735 50.9196 220.029 11.3778 170.055 -9.34468C120.081 -30.0672 64.8438 -29.4807 14.3348 -7.66379L-247.903 105.737C-248.426 105.954 -248.98 105.724 -249.196 105.201C-249.413 104.678 -249.183 104.124 -248.66 103.908L13.5778 -9.49326C64.5172 -31.5647 120.386 -32.1062 170.821 -11.1921C221.257 9.7219 260.348 49.6399 280.721 101.282L385.851 367.019C385.959 367.28 385.937 367.595 385.86 367.78Z" fill="url(#paint4_linear_958_172796)"/>
<path d="M385.86 367.78C385.745 368.057 385.576 368.204 385.315 368.312C384.792 368.528 384.238 368.298 384.022 367.776L278.892 102.039C258.735 50.9196 220.029 11.3778 170.055 -9.34468C120.082 -30.0672 64.844 -29.4807 14.3349 -7.66379L-247.903 105.737C-248.426 105.954 -248.98 105.724 -249.196 105.201C-249.412 104.678 -249.183 104.124 -248.66 103.908L13.578 -9.49326C64.5173 -31.5647 120.386 -32.1062 170.821 -11.1921C221.257 9.7219 260.348 49.6399 280.721 101.282L385.851 367.019C385.959 367.28 385.937 367.595 385.86 367.78Z" fill="url(#paint5_linear_958_172796)"/>
<path d="M385.86 367.78C385.745 368.057 385.576 368.204 385.315 368.312C384.792 368.528 384.238 368.298 384.022 367.776L278.892 102.039C258.735 50.9196 220.029 11.3778 170.055 -9.34468C120.082 -30.0672 64.844 -29.4807 14.3349 -7.66379L-247.903 105.737C-248.426 105.954 -248.98 105.724 -249.196 105.201C-249.412 104.678 -249.183 104.124 -248.66 103.908L13.578 -9.49326C64.5173 -31.5647 120.386 -32.1062 170.821 -11.1921C221.257 9.7219 260.348 49.6399 280.721 101.282L385.851 367.019C385.959 367.28 385.937 367.595 385.86 367.78Z" fill="#8DAEFF"/>
<path d="M369.364 360.832C369.249 361.109 369.08 361.256 368.818 361.364C368.296 361.58 367.741 361.35 367.525 360.827L268.212 109.519C248.141 58.9767 209.82 19.8112 160.308 -0.719798C110.796 -21.2508 56.0049 -20.6958 6.0186 0.904811L-242.383 108.352C-242.906 108.568 -243.46 108.338 -243.676 107.815C-243.893 107.293 -243.663 106.738 -243.14 106.522L5.354 -0.886376C55.863 -22.7033 111.193 -23.2515 161.167 -2.52895C211.141 18.1936 249.847 57.7353 270.095 108.893L369.355 360.07C369.463 360.332 369.44 360.647 369.364 360.832Z" fill="#8DAEFF"/>
<path d="M353.16 354.22C353.045 354.498 352.876 354.644 352.615 354.752C352.092 354.968 351.538 354.739 351.321 354.216L257.548 117.222C237.678 66.9784 199.742 28.1892 150.692 7.84974C101.642 -12.4897 47.3508 -11.8356 -2.2052 9.51042L-236.433 110.71C-236.956 110.926 -237.51 110.696 -237.726 110.174C-237.943 109.651 -237.713 109.097 -237.19 108.881L-3.05455 7.64264C47.0624 -14.0121 101.854 -14.567 151.458 6.00227C200.97 26.5333 239.345 65.8294 259.47 116.503L353.151 353.459C353.259 353.72 353.237 354.036 353.16 354.22Z" fill="#8DAEFF"/>
<path d="M336.972 347.833C336.857 348.11 336.688 348.257 336.427 348.365C335.904 348.581 335.35 348.351 335.134 347.829L246.923 124.833C227.269 75.1121 189.664 36.5685 141.076 16.4205C92.4878 -3.72742 38.6426 -3.10484 -10.429 18.1173L-230.598 113.347C-231.12 113.563 -231.675 113.333 -231.891 112.81C-232.107 112.288 -231.877 111.733 -231.355 111.517L-11.1859 16.2878C38.4084 -5.1506 92.792 -5.76641 141.842 14.5731C190.985 34.9509 228.882 73.8324 248.752 124.076L336.963 347.072C337.071 347.333 337.049 347.648 336.972 347.833Z" fill="#8DAEFF"/>
<path d="M320.769 341.222C320.654 341.499 320.485 341.646 320.223 341.754C319.701 341.97 319.146 341.74 318.93 341.217L236.444 132.612C216.913 83.3756 179.694 45.2083 131.568 25.2518C83.4416 5.29541 30.1349 5.92475 -18.5063 26.8923L-224.539 115.967C-225.062 116.183 -225.616 115.953 -225.833 115.431C-226.049 114.908 -225.819 114.354 -225.296 114.137L-19.2633 25.0629C29.8083 3.84071 83.7458 3.25642 132.334 23.4044C181.015 43.5906 218.619 82.1343 238.273 131.855L320.76 340.461C320.868 340.722 320.883 340.945 320.769 341.222Z" fill="#8DAEFF"/>
<path d="M304.342 334.627C304.227 334.904 304.058 335.051 303.797 335.159C303.274 335.375 302.72 335.145 302.503 334.623L225.741 140.407C206.466 91.6013 169.594 53.9026 121.837 34.0993C74.1724 14.3344 21.3501 14.8399 -26.8067 35.6836L-218.22 118.479C-218.742 118.696 -219.297 118.466 -219.513 117.943C-219.729 117.42 -219.499 116.866 -218.977 116.65L-27.602 33.9464C21.0776 12.8865 74.346 12.3495 122.565 32.3443C170.784 52.339 208.002 90.5064 227.533 139.742L304.425 333.904C304.533 334.165 304.419 334.442 304.342 334.627Z" fill="#8DAEFF"/>
<path d="M288.285 328.185C288.17 328.462 288.001 328.609 287.74 328.717C287.217 328.933 286.663 328.703 286.446 328.181L215.154 147.925C196.003 99.6035 159.423 62.2428 112.221 42.6694C65.0181 23.096 12.7343 23.6082 -34.9922 44.1973L-212.4 120.892C-212.923 121.109 -213.477 120.879 -213.693 120.356C-213.91 119.833 -213.68 119.279 -213.157 119.063L-35.7492 42.3678C12.5 21.5625 65.3223 21.057 113.079 40.8602C160.836 60.6635 197.762 98.4928 217.168 147.244L288.368 327.462C288.476 327.723 288.361 328 288.285 328.185Z" fill="#8DAEFF"/>
<path d="M271.919 321.182C271.804 321.46 271.635 321.606 271.374 321.714C270.851 321.93 270.297 321.701 270.08 321.178L204.675 155.704C185.778 107.814 149.53 70.6984 102.789 51.3165C55.9561 31.8963 4.17244 32.5077 -43.0697 52.9729L-206.603 123.621C-207.126 123.837 -207.68 123.608 -207.897 123.085C-208.113 122.562 -207.883 122.008 -207.36 121.792L-43.919 51.1051C3.84579 30.4237 56.2603 29.8574 103.555 49.4691C150.85 69.0808 187.391 106.534 206.597 154.986L271.91 320.421C272.018 320.682 272.034 320.905 271.919 321.182Z" fill="#8DAEFF"/>
<path d="M255.145 314.119C255.03 314.396 254.861 314.543 254.6 314.651C254.077 314.867 253.523 314.637 253.307 314.114L193.788 163.423C175.015 116.017 139.245 79.3162 92.8734 60.0876C46.5021 40.8589 -4.74307 41.4771 -51.5548 61.6877L-200.338 126.003C-200.86 126.219 -201.415 125.989 -201.631 125.467C-201.847 124.944 -201.617 124.39 -201.095 124.173L-52.4425 59.9122C-5.20037 39.4471 46.6756 38.874 93.5088 58.2942C140.342 77.7143 176.59 114.83 195.487 162.72L255.136 313.357C255.244 313.619 255.222 313.934 255.145 314.119Z" fill="#8DAEFF"/>
<path d="M239.55 307.868C239.435 308.146 239.266 308.292 239.005 308.4C238.482 308.616 237.928 308.387 237.712 307.864L183.74 170.948C165.129 123.933 129.613 87.6632 83.7034 68.626C37.794 49.5889 -13.0051 50.1755 -59.3865 70.1316L-194.764 128.747C-195.286 128.963 -195.841 128.734 -196.057 128.211C-196.273 127.688 -196.043 127.134 -195.521 126.918L-60.0511 68.3404C-13.2394 48.1298 38.1906 47.5882 84.5619 66.8169C130.933 86.0456 166.796 122.784 185.661 170.229L239.541 307.107C239.649 307.368 239.665 307.591 239.55 307.868Z" fill="#8DAEFF"/>
<path d="M222.977 301.105C222.862 301.382 222.693 301.528 222.432 301.636C221.909 301.853 221.355 301.623 221.138 301.1L172.722 178.721C154.327 132.229 119.105 96.2968 73.7493 77.4895C28.3017 58.6439 -21.9589 59.2373 -67.8176 78.9771L-188.982 131.253C-189.505 131.469 -190.059 131.239 -190.276 130.717C-190.492 130.194 -190.262 129.64 -189.739 129.423L-68.721 76.9786C-22.3013 56.9302 28.4595 56.436 74.4613 75.5114C120.463 94.5868 155.941 130.949 174.59 177.872L222.968 300.343C223.076 300.605 223.092 300.828 222.977 301.105Z" fill="#8DAEFF"/>
<path d="M206.557 293.971C206.442 294.248 206.273 294.395 206.012 294.503C205.489 294.719 204.935 294.489 204.719 293.966L162.135 186.239C143.956 140.27 109.157 104.621 64.1714 85.9672C19.1857 67.3131 -30.6288 67.875 -76.0031 87.4909L-182.847 133.689C-183.37 133.905 -183.925 133.675 -184.141 133.152C-184.357 132.63 -184.127 132.075 -183.605 131.859L-76.7601 85.6614C-30.863 65.8293 19.4899 65.2742 65.0299 84.1581C110.477 103.004 145.662 139.028 164.149 185.558L206.548 293.209C206.656 293.471 206.672 293.694 206.557 293.971Z" fill="#8DAEFF"/>
<path d="M190.369 287.583C190.254 287.86 190.085 288.007 189.824 288.115C189.301 288.331 188.747 288.101 188.531 287.579L151.509 193.849C133.401 148.234 98.9867 112.962 54.3705 94.461C9.84661 75.9985 -39.4294 76.5671 -84.4117 96.0207L-176.244 135.777C-176.767 135.994 -177.321 135.764 -177.537 135.241C-177.754 134.718 -177.524 134.164 -177.001 133.948L-85.0763 94.2296C-39.6637 74.5213 10.1508 73.9595 55.2289 92.6519C100.307 111.344 135.199 147.031 153.431 193.131L190.36 286.822C190.468 287.083 190.484 287.306 190.369 287.583Z" fill="#8DAEFF"/>
<path d="M173.796 280.819C173.681 281.096 173.512 281.243 173.251 281.351C172.728 281.567 172.174 281.337 171.958 280.815L140.677 201.698C122.784 156.606 88.6631 121.672 44.6011 103.401C0.539168 85.1295 -48.2907 85.6666 -92.8427 104.866L-170.801 138.576C-171.323 138.792 -171.878 138.562 -172.094 138.039C-172.31 137.517 -172.08 136.962 -171.558 136.746L-93.5997 103.036C-48.525 83.6209 0.843385 83.0906 45.3672 101.553C89.9835 120.054 124.397 155.326 142.506 200.942L173.787 280.058C173.895 280.319 173.911 280.542 173.796 280.819Z" fill="#8DAEFF"/>
<path d="M157.561 273.762C157.446 274.039 157.277 274.186 157.016 274.294C156.493 274.51 155.939 274.28 155.722 273.758L130.274 209.293C112.636 164.631 78.8622 130.165 35.1697 112.048C-8.43046 93.968 -56.722 94.512 -100.844 113.456L-164.22 140.98C-164.742 141.196 -165.297 140.966 -165.513 140.444C-165.729 139.921 -165.499 139.367 -164.977 139.15L-101.546 111.758C-56.9562 92.4662 -8.12624 91.929 36.0281 110.238C80.1825 128.548 114.304 163.482 132.158 208.667L157.552 273.001C157.66 273.262 157.638 273.578 157.561 273.762Z" fill="#8DAEFF"/>
<path d="M141.211 266.982C141.096 267.259 140.927 267.406 140.666 267.514C140.143 267.73 139.589 267.5 139.372 266.977L119.61 216.996C102.096 172.818 68.7458 138.636 25.6075 120.748C-17.5307 102.86 -65.3761 103.372 -108.921 122.231L-158.569 143.539C-159.092 143.755 -159.646 143.526 -159.862 143.003C-160.079 142.48 -159.849 141.926 -159.326 141.71L-109.732 120.271C-65.6644 101.196 -17.2806 100.69 26.4119 118.808C70.1044 136.926 103.933 171.522 121.57 216.185L141.294 266.259C141.31 266.482 141.326 266.705 141.211 266.982Z" fill="#8DAEFF"/>
<path d="M125.424 261.194C125.309 261.471 125.14 261.617 124.879 261.726C124.356 261.942 123.802 261.712 123.586 261.189L109.077 224.645C91.7256 180.859 58.6678 147.015 15.899 129.28C-26.7773 111.584 -74.0842 112.103 -117.237 130.8L-152.826 146.137C-153.349 146.354 -153.903 146.124 -154.12 145.601C-154.336 145.078 -154.106 144.524 -153.583 144.308L-117.994 128.97C-74.4109 110.019 -26.5655 109.507 16.6651 127.433C59.9881 145.398 93.4311 179.618 110.999 223.926L125.507 260.471C125.523 260.694 125.501 261.009 125.424 261.194Z" fill="#8DAEFF"/>
<path d="M108.711 253.723C108.596 254 108.427 254.146 108.166 254.254C107.643 254.471 107.089 254.241 106.873 253.718L98.3209 232.309C81.1856 189.046 48.5131 155.579 6.20621 138.036C-36.1007 120.492 -82.8691 121.018 -125.592 139.46L-146.691 148.573C-147.214 148.79 -147.768 148.56 -147.985 148.037C-148.201 147.514 -147.971 146.96 -147.448 146.744L-126.218 137.577C-82.9727 118.918 -35.6658 118.399 7.10296 136.134C49.8717 153.869 83.0218 187.751 100.281 231.498L108.702 252.961C108.81 253.222 108.788 253.538 108.711 253.723Z" fill="#8DAEFF"/>
<path d="M92.3613 246.942C92.2464 247.219 92.0774 247.366 91.816 247.474C91.2933 247.69 90.7391 247.46 90.5228 246.938L87.6955 239.919C70.7764 197.179 38.3968 164.05 -3.44823 146.698C-45.2933 129.346 -91.4849 129.786 -133.723 148.105L-140.856 151.209C-141.379 151.425 -141.933 151.195 -142.149 150.673C-142.366 150.15 -142.136 149.596 -141.613 149.38L-134.48 146.275C-91.7574 127.833 -44.8584 127.253 -2.55147 144.796C39.7554 162.34 72.5203 195.845 89.6173 239.201L92.4447 246.219C92.4604 246.442 92.4762 246.665 92.3613 246.942Z" fill="#8DAEFF"/>
<path d="M76.2432 240.908C76.1666 241.093 75.9593 241.332 75.698 241.44C75.1753 241.656 74.621 241.426 74.4048 240.904C56.9922 201.964 26.0635 171.601 -12.8256 155.475C-51.7147 139.349 -94.9774 138.731 -134.798 153.829C-135.321 154.046 -135.875 153.816 -136.091 153.293C-136.307 152.77 -136.078 152.216 -135.555 152C-95.304 136.647 -51.5029 137.272 -12.1519 153.589C27.199 169.907 58.513 200.646 76.0495 240.07C76.3424 240.408 76.3581 240.631 76.2432 240.908Z" fill="#8DAEFF"/>
<path d="M57.7303 233.34C57.6537 233.525 57.4848 233.671 57.3158 233.818C56.8855 234.072 56.2005 233.896 55.9459 233.466C37.8077 202.02 10.736 178.02 -22.6108 164.192C-55.8651 150.403 -92.0306 148.072 -127.099 157.455C-127.584 157.579 -128.23 157.311 -128.316 156.734C-128.44 156.25 -128.172 155.603 -127.595 155.517C-92.1342 145.972 -55.5609 148.364 -21.8447 162.345C11.8715 176.326 39.3668 200.61 57.6673 232.448C57.7754 232.709 57.8453 233.063 57.7303 233.34Z" fill="#8DAEFF"/>
<path d="M35.9145 224.077C35.8379 224.262 35.7996 224.354 35.6306 224.501C35.162 224.847 34.5694 224.71 34.1842 224.334C-0.648645 178.062 -57.8817 154.221 -115.253 162.042C-115.83 162.128 -116.307 161.713 -116.393 161.137C-116.479 160.56 -116.064 160.082 -115.487 159.997C-57.4085 152.036 0.563539 176.183 35.7974 223.054C36.0902 223.392 36.0677 223.707 35.9145 224.077Z" fill="#8DAEFF"/>
<path d="M5.97662 210.905C5.93831 210.998 5.9 211.09 5.76933 211.144C5.39306 211.53 4.72392 211.577 4.33866 211.201C-22.9966 186.009 -58.522 171.169 -95.7555 169.587C-96.294 169.58 -96.7333 169.073 -96.7265 168.534C-96.7198 167.996 -96.2128 167.557 -95.6743 167.563C-58.033 169.207 -22.0458 184.238 5.67473 209.806C6.00592 210.052 6.12983 210.536 5.97662 210.905Z" fill="#8DAEFF"/>
</g>
</g>
</g>
</g>
</g>
<path d="M435.392 162.618L457.476 159.767L453.438 138.793L431.354 141.645L435.392 162.618ZM434.606 143.9L451.191 141.759L454.224 157.511L437.638 159.652L434.606 143.9Z" fill="black"/>
<path d="M448.383 145.467L438.67 146.721L440.446 155.946L450.159 154.692L448.383 145.467Z" fill="black"/>
<path d="M442.535 203.753L464.619 200.902L460.581 179.928L438.497 182.779L442.535 203.753ZM441.749 185.035L458.334 182.894L461.367 198.646L444.781 200.787L441.749 185.035Z" fill="black"/>
<path d="M455.526 186.601L445.813 187.855L447.589 197.08L457.302 195.826L455.526 186.601Z" fill="black"/>
<path d="M498.537 132.279L476.454 135.13L480.492 156.104L502.575 153.252L498.537 132.279ZM499.324 150.997L482.738 153.138L479.705 137.386L496.291 135.244L499.324 150.997Z" fill="black"/>
<path d="M493.483 138.951L483.77 140.205L485.546 149.43L495.259 148.176L493.483 138.951Z" fill="black"/>
<path d="M461.3 143.74L458.145 144.147L458.722 147.144L461.877 146.736L461.3 143.74Z" fill="black"/>
<path d="M467.743 142.809L464.589 143.217L465.165 146.213L468.32 145.806L467.743 142.809Z" fill="black"/>
<path d="M466.723 136.933L463.568 137.34L464.145 140.336L467.3 139.929L466.723 136.933Z" fill="black"/>
<path d="M473.685 138.971L473.117 136.002L470.011 136.405L470.579 139.374L471.147 142.343L474.253 141.939L473.685 138.971Z" fill="black"/>
<path d="M476.227 153.632L473.072 154.039L473.649 157.035L476.803 156.628L476.227 153.632Z" fill="black"/>
<path d="M493.377 175.276L496.483 174.872L495.915 171.903L495.347 168.934L492.241 169.338L492.809 172.307L493.377 175.276Z" fill="black"/>
<path d="M507.627 182.332L507.065 179.373L506.504 176.414L505.943 173.455L505.381 170.496L502.313 170.898L501.752 167.939L498.684 168.342L499.245 171.301L499.807 174.26L500.368 177.219L500.93 180.178L501.491 183.137L502.052 186.096L505.12 185.694L504.559 182.735L507.627 182.332Z" fill="black"/>
<path d="M501.678 186.097L498.524 186.504L499.101 189.5L502.255 189.093L501.678 186.097Z" fill="black"/>
<path d="M508.121 185.166L504.966 185.573L505.543 188.57L508.698 188.162L508.121 185.166Z" fill="black"/>
<path d="M502.832 191.915L503.409 194.911L506.564 194.504L509.719 194.097L509.142 191.101L505.987 191.508L505.41 188.512L502.255 188.919L502.832 191.915Z" fill="black"/>
<path d="M490.782 181.753L493.943 181.345L493.365 178.342L492.787 175.34L489.626 175.748L490.204 178.75L487.043 179.159L483.881 179.567L484.46 182.569L485.038 185.572L488.199 185.164L488.777 188.166L485.616 188.574L485.038 185.572L481.876 185.98L482.454 188.983L483.032 191.985L479.871 192.393L479.293 189.391L478.715 186.388L475.554 186.796L476.132 189.799L476.71 192.801L473.549 193.21L474.127 196.212L470.966 196.62L470.388 193.618L473.549 193.21L472.971 190.207L472.393 187.205L471.815 184.202L468.654 184.61L468.076 181.608L467.498 178.605L470.659 178.197L473.82 177.789L473.242 174.786L470.081 175.194L466.92 175.603L463.758 176.011L464.336 179.013L464.914 182.016L465.492 185.018L466.07 188.021L469.232 187.613L469.81 190.615L466.648 191.023L467.226 194.026L467.804 197.029L468.383 200.031L471.544 199.623L474.705 199.215L477.866 198.807L481.027 198.398L480.449 195.396L483.61 194.988L484.188 197.99L487.35 197.582L490.511 197.174L489.933 194.171L486.772 194.58L486.194 191.577L489.355 191.169L492.516 190.761L495.677 190.353L495.099 187.35L494.521 184.347L491.36 184.756L490.782 181.753Z" fill="black"/>
<path d="M497.437 180.685L494.282 181.093L494.859 184.089L498.013 183.682L497.437 180.685Z" fill="black"/>
<path d="M496.576 156.716L493.421 157.123L493.998 160.119L497.153 159.712L496.576 156.716Z" fill="black"/>
<path d="M498.246 165.633L501.431 165.219L504.616 164.806L504.034 161.764L503.451 158.722L500.266 159.136L497.081 159.55L497.663 162.591L494.478 163.005L493.896 159.963L490.71 160.377L491.293 163.419L491.875 166.46L495.061 166.047L498.246 165.633Z" fill="black"/>
<path d="M467.295 157.944L467.867 160.922L468.439 163.9L471.568 163.496L470.996 160.517L470.424 157.539L469.851 154.56L472.98 154.155L472.408 151.177L475.536 150.772L474.964 147.793L474.392 144.815L471.264 145.22L471.836 148.198L468.707 148.603L469.279 151.582L466.151 151.987L465.579 149.008L462.45 149.413L463.022 152.392L463.594 155.37L466.723 154.965L467.295 157.944Z" fill="black"/>
<path d="M453.651 174.925L454.227 177.921L457.382 177.514L460.537 177.107L459.96 174.11L456.805 174.518L456.229 171.521L453.074 171.929L453.651 174.925Z" fill="black"/>
<path d="M458.94 168.176L455.785 168.583L456.362 171.579L459.517 171.172L458.94 168.176Z" fill="black"/>
<path d="M449.209 169.63L448.632 166.634L445.477 167.041L444.9 164.045L441.746 164.452L438.591 164.859L435.436 165.267L436.013 168.263L436.59 171.259L437.167 174.255L437.743 177.252L438.32 180.248L441.475 179.841L440.898 176.844L444.053 176.437L447.208 176.03L446.631 173.033L443.476 173.441L442.899 170.445L446.054 170.037L446.631 173.033L449.786 172.626L452.94 172.219L452.364 169.223L449.209 169.63Z" fill="black"/>
<path d="M450.295 175.448L447.141 175.855L447.717 178.852L450.872 178.444L450.295 175.448Z" fill="black"/>
<path d="M476.21 171.981L479.388 171.57L479.969 174.596L483.147 174.184L483.728 177.21L486.906 176.799L490.084 176.388L489.503 173.362L488.922 170.336L492.099 169.924L491.518 166.898L488.34 167.31L487.759 164.284L487.178 161.258L484 161.669L484.582 164.695L481.404 165.107L480.823 162.081L484 161.669L483.419 158.644L480.242 159.055L477.064 159.466L473.886 159.878L474.467 162.904L477.645 162.492L478.226 165.518L478.807 168.544L475.629 168.955L475.048 165.93L474.467 162.904L471.289 163.315L471.87 166.341L468.693 166.752L465.515 167.164L464.934 164.138L464.353 161.112L463.771 158.086L463.19 155.06L460.012 155.472L460.594 158.497L461.175 161.523L457.997 161.935L454.819 162.346L451.641 162.758L448.464 163.169L449.045 166.195L452.222 165.783L452.804 168.809L455.981 168.398L455.4 165.372L458.578 164.961L461.756 164.549L462.337 167.575L462.918 170.601L463.499 173.627L466.677 173.216L469.855 172.804L473.033 172.393L473.614 175.419L476.792 175.007L476.21 171.981ZM485.163 167.721L485.744 170.747L482.566 171.159L481.985 168.133L485.163 167.721Z" fill="black"/>
<path d="M480.309 177.137L477.154 177.544L477.731 180.54L480.886 180.133L480.309 177.137Z" fill="black"/>
<path d="M481.329 183.013L478.174 183.42L478.751 186.416L481.906 186.009L481.329 183.013Z" fill="black"/>
<path d="M474.377 181.006L471.222 181.413L471.799 184.409L474.954 184.002L474.377 181.006Z" fill="black"/>
<path d="M194.266 101.419H189.916V81.9889H200.066C204.561 81.9889 207.461 84.5409 207.461 89.0069C207.461 93.4729 204.561 96.0539 200.066 96.0539H194.266V101.419ZM199.602 85.9039H194.266V92.1389H199.602C202.009 92.1389 203.14 91.4429 203.14 89.0069C203.14 86.6289 202.009 85.9039 199.602 85.9039ZM212.571 101.419H207.699L216.196 81.9889H222.402L230.957 101.419H225.969L224.142 97.1269H214.427L212.571 101.419ZM217.936 88.9779L216.109 93.2119H222.46L220.633 88.9779L219.444 85.9619H219.125L217.936 88.9779ZM243.484 101.419H239.105V94.9809L230.492 81.9889H235.857L239.569 87.6729L241.193 90.2829H241.512L243.136 87.6729L246.848 81.9889H252.242L243.484 95.0099V101.419ZM257.42 101.419H253.07V81.9889H258.957L263.51 91.5589L265.337 96.1119H265.656L267.425 91.5589L271.833 81.9889H277.749V101.419H273.399V91.5589L273.544 88.5139H273.225L272.094 91.5589L268.034 100.259H262.756L258.696 91.5589L257.565 88.5139H257.246L257.42 91.5589V101.419ZM296.474 101.419H280.031V81.9889H296.474V85.9039H284.381V89.7029H296.039V93.5889H284.381V97.5039H296.474V101.419ZM302.789 101.419H298.439V81.9889H303.079L310.039 91.1819L312.707 95.2709H313.026L312.823 91.3559V81.9889H317.173V101.419H312.533L305.37 92.1389L302.905 88.4849H302.615L302.789 92.0519V101.419ZM330.298 101.419H325.948V85.9039H318.727V81.9889H337.519V85.9039H330.298V101.419ZM194.067 137.709C188.122 137.709 184.468 133.765 184.468 127.704C184.468 121.643 188.586 117.699 195.256 117.699C201.346 117.699 205.203 120.541 205.203 125.21V125.442H200.36V125.21C200.36 122.948 198.881 121.875 195.14 121.875C190.732 121.875 189.079 123.383 189.079 127.704C189.079 132.025 190.674 133.533 194.937 133.533C199.403 133.533 200.766 132.837 200.882 130.372H194.299V127.153H205.232V137.419H201.201V133.243H200.969C200.302 135.795 198.272 137.709 194.067 137.709ZM210.928 137.419H206.056L214.553 117.989H220.759L229.314 137.419H224.326L222.499 133.127H212.784L210.928 137.419ZM216.293 124.978L214.466 129.212H220.817L218.99 124.978L217.801 121.962H217.482L216.293 124.978ZM241.146 137.419H236.796V121.904H229.575V117.989H248.367V121.904H241.146V137.419ZM266.369 137.419H249.926V117.989H266.369V121.904H254.276V125.703H265.934V129.589H254.276V133.504H266.369V137.419ZM278.543 137.419H272.076L267.494 117.989H272.366L274.715 129.009L275.382 133.272H275.701L276.6 129.009L279.848 117.989H286.315L289.534 129.009L290.433 133.272H290.752L291.419 129.009L293.768 117.989H298.524L293.913 137.419H287.446L284.546 127.704L283.183 122.107H282.864L281.501 127.704L278.543 137.419ZM303.592 137.419H298.72L307.217 117.989H313.423L321.978 137.419H316.99L315.163 133.127H305.448L303.592 137.419ZM308.957 124.978L307.13 129.212H313.481L311.654 124.978L310.465 121.962H310.146L308.957 124.978ZM334.506 137.419H330.127V130.981L321.514 117.989H326.879L330.591 123.673L332.215 126.283H332.534L334.158 123.673L337.87 117.989H343.264L334.506 131.01V137.419Z" fill="#0B0F1A"/>
</g>
<path d="M24.7436 246.419H22.4036V233.079H28.2636C29.6103 233.079 30.6703 233.479 31.4436 234.279C32.2303 235.079 32.6236 236.072 32.6236 237.259C32.6236 238.432 32.2303 239.426 31.4436 240.239C30.6703 241.039 29.6103 241.439 28.2636 241.439H24.7436V246.419ZM27.9436 239.379C28.6103 239.379 29.157 239.186 29.5836 238.799C30.0103 238.412 30.2236 237.899 30.2236 237.259C30.2236 236.619 30.0103 236.106 29.5836 235.719C29.157 235.332 28.6103 235.139 27.9436 235.139H24.7436V239.379H27.9436ZM45.0677 246.419H42.4077L41.4277 243.859H35.3077L34.3277 246.419H31.6677L36.9077 233.079H39.8277L45.0677 246.419ZM40.7677 241.799L38.3677 235.439L35.9677 241.799H40.7677ZM51.3361 246.419H48.9961V240.879L43.8161 233.079H46.4961L50.1761 238.799L53.8161 233.079H56.4961L51.3361 240.879V246.419ZM66.9672 246.639C65.4072 246.639 64.1339 246.146 63.1472 245.159L64.2272 243.399C64.9739 244.172 65.8872 244.559 66.9672 244.559C68.1006 244.559 68.9672 244.132 69.5672 243.279C70.1806 242.412 70.4872 241.379 70.4872 240.179V239.779C70.1406 240.272 69.6406 240.712 68.9872 241.099C68.3339 241.472 67.6406 241.659 66.9072 241.659C65.6406 241.659 64.5739 241.279 63.7072 240.519C62.8539 239.759 62.4272 238.699 62.4272 237.339C62.4272 236.072 62.8806 235.012 63.7872 234.159C64.7072 233.292 65.8939 232.859 67.3472 232.859C68.6006 232.859 69.6472 233.186 70.4872 233.839C71.3406 234.479 71.9472 235.306 72.3072 236.319C72.6672 237.319 72.8472 238.466 72.8472 239.759C72.8472 241.759 72.3339 243.406 71.3072 244.699C70.2806 245.992 68.8339 246.639 66.9672 246.639ZM67.5272 239.639C68.1006 239.639 68.6472 239.499 69.1672 239.219C69.6872 238.939 70.1139 238.559 70.4472 238.079C70.3806 237.239 70.1006 236.506 69.6072 235.879C69.1272 235.252 68.4139 234.939 67.4672 234.939C66.6539 234.939 66.0072 235.179 65.5272 235.659C65.0472 236.139 64.8072 236.672 64.8072 237.259C64.8072 238.032 65.0672 238.626 65.5872 239.039C66.1072 239.439 66.7539 239.639 67.5272 239.639ZM78.979 246.639C77.419 246.639 76.1456 246.146 75.159 245.159L76.239 243.399C76.9856 244.172 77.899 244.559 78.979 244.559C80.1123 244.559 80.979 244.132 81.579 243.279C82.1923 242.412 82.499 241.379 82.499 240.179V239.779C82.1523 240.272 81.6523 240.712 80.999 241.099C80.3456 241.472 79.6523 241.659 78.919 241.659C77.6523 241.659 76.5856 241.279 75.719 240.519C74.8656 239.759 74.439 238.699 74.439 237.339C74.439 236.072 74.8923 235.012 75.799 234.159C76.719 233.292 77.9056 232.859 79.359 232.859C80.6123 232.859 81.659 233.186 82.499 233.839C83.3523 234.479 83.959 235.306 84.319 236.319C84.679 237.319 84.859 238.466 84.859 239.759C84.859 241.759 84.3456 243.406 83.319 244.699C82.2923 245.992 80.8456 246.639 78.979 246.639ZM79.539 239.639C80.1123 239.639 80.659 239.499 81.179 239.219C81.699 238.939 82.1256 238.559 82.459 238.079C82.3923 237.239 82.1123 236.506 81.619 235.879C81.139 235.252 80.4256 234.939 79.479 234.939C78.6656 234.939 78.019 235.179 77.539 235.659C77.059 236.139 76.819 236.672 76.819 237.259C76.819 238.032 77.079 238.626 77.599 239.039C78.119 239.439 78.7656 239.639 79.539 239.639Z" fill="#0B0F1A"/>
<path d="M31.2212 273.419H29.7012L28.7572 271.051H23.4452L22.5012 273.419H20.9812L25.2692 262.747H26.9172L31.2212 273.419ZM28.3572 269.867L26.1012 264.123L23.8292 269.867H28.3572ZM35.9764 273.611C34.8351 273.611 33.9071 273.227 33.1924 272.459C32.4777 271.68 32.1204 270.71 32.1204 269.547C32.1204 268.384 32.4777 267.419 33.1924 266.651C33.9071 265.883 34.8351 265.499 35.9764 265.499C37.1711 265.499 38.1151 265.947 38.8084 266.843L38.0084 267.579C37.5177 266.907 36.8617 266.571 36.0404 266.571C35.2297 266.571 34.5791 266.848 34.0884 267.403C33.6084 267.958 33.3684 268.672 33.3684 269.547C33.3684 270.422 33.6084 271.142 34.0884 271.707C34.5791 272.262 35.2297 272.539 36.0404 272.539C36.8511 272.539 37.5071 272.203 38.0084 271.531L38.8084 272.267C38.1151 273.163 37.1711 273.611 35.9764 273.611ZM43.8983 273.611C42.757 273.611 41.829 273.227 41.1143 272.459C40.3996 271.68 40.0423 270.71 40.0423 269.547C40.0423 268.384 40.3996 267.419 41.1143 266.651C41.829 265.883 42.757 265.499 43.8983 265.499C45.093 265.499 46.037 265.947 46.7303 266.843L45.9303 267.579C45.4396 266.907 44.7836 266.571 43.9623 266.571C43.1516 266.571 42.5009 266.848 42.0103 267.403C41.5303 267.958 41.2903 268.672 41.2903 269.547C41.2903 270.422 41.5303 271.142 42.0103 271.707C42.5009 272.262 43.1516 272.539 43.9623 272.539C44.773 272.539 45.429 272.203 45.9303 271.531L46.7303 272.267C46.037 273.163 45.093 273.611 43.8983 273.611ZM51.9002 273.611C50.7482 273.611 49.8042 273.238 49.0682 272.491C48.3322 271.734 47.9642 270.752 47.9642 269.547C47.9642 268.416 48.3268 267.462 49.0522 266.683C49.7775 265.894 50.6842 265.499 51.7722 265.499C52.9135 265.499 53.8148 265.894 54.4762 266.683C55.1482 267.462 55.4842 268.448 55.4842 269.643V269.947H49.2282C49.2815 270.704 49.5588 271.339 50.0602 271.851C50.5615 272.363 51.2122 272.619 52.0122 272.619C52.9722 272.619 53.7668 272.294 54.3962 271.643L54.9722 272.427C54.1828 273.216 53.1588 273.611 51.9002 273.611ZM54.3002 269.067C54.2895 268.406 54.0655 267.814 53.6282 267.291C53.1908 266.758 52.5668 266.491 51.7562 266.491C50.9882 266.491 50.3802 266.752 49.9322 267.275C49.4948 267.798 49.2602 268.395 49.2282 269.067H54.3002ZM61.2358 273.611C60.1478 273.611 59.2785 273.158 58.6278 272.251V276.363H57.4278V265.691H58.6278V266.843C58.9158 266.438 59.2891 266.112 59.7478 265.867C60.2065 265.622 60.7025 265.499 61.2358 265.499C62.2598 265.499 63.0865 265.867 63.7158 266.603C64.3558 267.328 64.6758 268.31 64.6758 269.547C64.6758 270.784 64.3558 271.771 63.7158 272.507C63.0865 273.243 62.2598 273.611 61.2358 273.611ZM60.9318 272.539C61.6891 272.539 62.2918 272.262 62.7398 271.707C63.1878 271.142 63.4118 270.422 63.4118 269.547C63.4118 268.672 63.1878 267.958 62.7398 267.403C62.2918 266.848 61.6891 266.571 60.9318 266.571C60.4731 266.571 60.0251 266.694 59.5878 266.939C59.1611 267.174 58.8411 267.462 58.6278 267.803V271.291C58.8411 271.643 59.1611 271.942 59.5878 272.187C60.0251 272.422 60.4731 272.539 60.9318 272.539ZM68.536 273.611C67.9707 273.611 67.544 273.456 67.256 273.147C66.968 272.838 66.824 272.39 66.824 271.803V266.747H65.544V265.691H66.824V263.579H68.024V265.691H69.592V266.747H68.024V271.547C68.024 271.846 68.088 272.086 68.216 272.267C68.3547 272.448 68.552 272.539 68.808 272.539C69.16 272.539 69.432 272.432 69.624 272.219L69.976 273.115C69.624 273.446 69.144 273.611 68.536 273.611ZM81.4442 273.419H80.2442V272.539C79.5935 273.254 78.7402 273.611 77.6842 273.611C76.9695 273.611 76.3402 273.382 75.7962 272.923C75.2522 272.464 74.9802 271.84 74.9802 271.051C74.9802 270.24 75.2468 269.616 75.7802 269.179C76.3242 268.731 76.9588 268.507 77.6842 268.507C78.7828 268.507 79.6362 268.859 80.2442 269.563V268.171C80.2442 267.659 80.0628 267.259 79.7002 266.971C79.3375 266.683 78.8682 266.539 78.2922 266.539C77.3855 266.539 76.5962 266.896 75.9242 267.611L75.3642 266.779C76.1855 265.926 77.2148 265.499 78.4522 265.499C79.3375 265.499 80.0575 265.712 80.6122 266.139C81.1668 266.566 81.4442 267.222 81.4442 268.107V273.419ZM78.1162 272.747C79.0762 272.747 79.7855 272.427 80.2442 271.787V270.331C79.7855 269.691 79.0762 269.371 78.1162 269.371C77.5615 269.371 77.1028 269.531 76.7402 269.851C76.3882 270.16 76.2122 270.566 76.2122 271.067C76.2122 271.558 76.3882 271.963 76.7402 272.283C77.1028 272.592 77.5615 272.747 78.1162 272.747ZM90.2657 273.419H89.0657V268.363C89.0657 267.712 88.9163 267.254 88.6177 266.987C88.319 266.71 87.8923 266.571 87.3377 266.571C86.8897 266.571 86.4523 266.688 86.0257 266.923C85.6097 267.158 85.2843 267.44 85.0497 267.771V273.419H83.8497V265.691H85.0497V266.811C85.3483 266.459 85.7483 266.155 86.2497 265.899C86.751 265.632 87.2683 265.499 87.8017 265.499C89.4443 265.499 90.2657 266.331 90.2657 267.995V273.419ZM99.4622 273.419H98.2622V272.267C97.6008 273.163 96.7315 273.611 95.6542 273.611C94.6302 273.611 93.7982 273.248 93.1582 272.523C92.5288 271.787 92.2142 270.8 92.2142 269.563C92.2142 268.336 92.5288 267.355 93.1582 266.619C93.7982 265.872 94.6302 265.499 95.6542 265.499C96.7208 265.499 97.5902 265.952 98.2622 266.859V262.747H99.4622V273.419ZM95.9422 272.539C96.4115 272.539 96.8595 272.422 97.2862 272.187C97.7128 271.952 98.0382 271.664 98.2622 271.323V267.819C98.0382 267.467 97.7075 267.174 97.2702 266.939C96.8435 266.694 96.4008 266.571 95.9422 266.571C95.1848 266.571 94.5822 266.854 94.1342 267.419C93.6862 267.974 93.4622 268.688 93.4622 269.563C93.4622 270.438 93.6862 271.152 94.1342 271.707C94.5822 272.262 95.1848 272.539 95.9422 272.539ZM116.518 273.419H115.318V268.171C115.318 267.104 114.844 266.571 113.894 266.571C113.51 266.571 113.126 266.688 112.742 266.923C112.358 267.158 112.06 267.435 111.846 267.755V273.419H110.646V268.171C110.646 267.104 110.172 266.571 109.222 266.571C108.849 266.571 108.47 266.688 108.086 266.923C107.713 267.158 107.414 267.44 107.19 267.771V273.419H105.99V265.691H107.19V266.811C107.382 266.512 107.718 266.219 108.198 265.931C108.678 265.643 109.174 265.499 109.686 265.499C110.252 265.499 110.71 265.632 111.062 265.899C111.414 266.166 111.649 266.512 111.766 266.939C112.001 266.555 112.358 266.219 112.838 265.931C113.318 265.643 113.825 265.499 114.358 265.499C115.798 265.499 116.518 266.278 116.518 267.835V273.419ZM124.944 273.419H123.744V272.539C123.093 273.254 122.24 273.611 121.184 273.611C120.469 273.611 119.84 273.382 119.296 272.923C118.752 272.464 118.48 271.84 118.48 271.051C118.48 270.24 118.747 269.616 119.28 269.179C119.824 268.731 120.459 268.507 121.184 268.507C122.283 268.507 123.136 268.859 123.744 269.563V268.171C123.744 267.659 123.563 267.259 123.2 266.971C122.837 266.683 122.368 266.539 121.792 266.539C120.885 266.539 120.096 266.896 119.424 267.611L118.864 266.779C119.685 265.926 120.715 265.499 121.952 265.499C122.837 265.499 123.557 265.712 124.112 266.139C124.667 266.566 124.944 267.222 124.944 268.107V273.419ZM121.616 272.747C122.576 272.747 123.285 272.427 123.744 271.787V270.331C123.285 269.691 122.576 269.371 121.616 269.371C121.061 269.371 120.603 269.531 120.24 269.851C119.888 270.16 119.712 270.566 119.712 271.067C119.712 271.558 119.888 271.963 120.24 272.283C120.603 272.592 121.061 272.747 121.616 272.747ZM133.766 273.419H132.566V268.363C132.566 267.712 132.416 267.254 132.118 266.987C131.819 266.71 131.392 266.571 130.838 266.571C130.39 266.571 129.952 266.688 129.526 266.923C129.11 267.158 128.784 267.44 128.55 267.771V273.419H127.35V265.691H128.55V266.811C128.848 266.459 129.248 266.155 129.75 265.899C130.251 265.632 130.768 265.499 131.302 265.499C132.944 265.499 133.766 266.331 133.766 267.995V273.419ZM142.194 273.419H140.994V272.539C140.343 273.254 139.49 273.611 138.434 273.611C137.719 273.611 137.09 273.382 136.546 272.923C136.002 272.464 135.73 271.84 135.73 271.051C135.73 270.24 135.997 269.616 136.53 269.179C137.074 268.731 137.709 268.507 138.434 268.507C139.533 268.507 140.386 268.859 140.994 269.563V268.171C140.994 267.659 140.813 267.259 140.45 266.971C140.087 266.683 139.618 266.539 139.042 266.539C138.135 266.539 137.346 266.896 136.674 267.611L136.114 266.779C136.935 265.926 137.965 265.499 139.202 265.499C140.087 265.499 140.807 265.712 141.362 266.139C141.917 266.566 142.194 267.222 142.194 268.107V273.419ZM138.866 272.747C139.826 272.747 140.535 272.427 140.994 271.787V270.331C140.535 269.691 139.826 269.371 138.866 269.371C138.311 269.371 137.853 269.531 137.49 269.851C137.138 270.16 136.962 270.566 136.962 271.067C136.962 271.558 137.138 271.963 137.49 272.283C137.853 272.592 138.311 272.747 138.866 272.747ZM147.704 276.555C147.021 276.555 146.44 276.47 145.96 276.299C145.48 276.139 145.021 275.84 144.584 275.403L145.192 274.507C145.778 275.211 146.616 275.563 147.704 275.563C148.418 275.563 149.01 275.371 149.48 274.987C149.949 274.614 150.184 274.032 150.184 273.243V272.139C149.896 272.544 149.522 272.875 149.064 273.131C148.605 273.387 148.114 273.515 147.592 273.515C146.568 273.515 145.736 273.158 145.096 272.443C144.466 271.718 144.152 270.742 144.152 269.515C144.152 268.288 144.466 267.312 145.096 266.587C145.736 265.862 146.568 265.499 147.592 265.499C148.648 265.499 149.512 265.952 150.184 266.859V265.691H151.384V273.195C151.384 274.379 151.037 275.232 150.344 275.755C149.65 276.288 148.77 276.555 147.704 276.555ZM147.88 272.459C148.338 272.459 148.781 272.336 149.208 272.091C149.645 271.846 149.97 271.547 150.184 271.195V267.819C149.97 267.467 149.65 267.174 149.224 266.939C148.797 266.694 148.349 266.571 147.88 266.571C147.112 266.571 146.504 266.843 146.056 267.387C145.618 267.931 145.4 268.64 145.4 269.515C145.4 270.379 145.624 271.088 146.072 271.643C146.52 272.187 147.122 272.459 147.88 272.459ZM157.275 273.611C156.123 273.611 155.179 273.238 154.443 272.491C153.707 271.734 153.339 270.752 153.339 269.547C153.339 268.416 153.702 267.462 154.427 266.683C155.152 265.894 156.059 265.499 157.147 265.499C158.288 265.499 159.19 265.894 159.851 266.683C160.523 267.462 160.859 268.448 160.859 269.643V269.947H154.603C154.656 270.704 154.934 271.339 155.435 271.851C155.936 272.363 156.587 272.619 157.387 272.619C158.347 272.619 159.142 272.294 159.771 271.643L160.347 272.427C159.558 273.216 158.534 273.611 157.275 273.611ZM159.675 269.067C159.664 268.406 159.44 267.814 159.003 267.291C158.566 266.758 157.942 266.491 157.131 266.491C156.363 266.491 155.755 266.752 155.307 267.275C154.87 267.798 154.635 268.395 154.603 269.067H159.675ZM170.336 273.611C169.194 273.611 168.266 273.227 167.552 272.459C166.837 271.68 166.48 270.71 166.48 269.547C166.48 268.384 166.837 267.419 167.552 266.651C168.266 265.883 169.194 265.499 170.336 265.499C171.53 265.499 172.474 265.947 173.168 266.843L172.368 267.579C171.877 266.907 171.221 266.571 170.4 266.571C169.589 266.571 168.938 266.848 168.448 267.403C167.968 267.958 167.728 268.672 167.728 269.547C167.728 270.422 167.968 271.142 168.448 271.707C168.938 272.262 169.589 272.539 170.4 272.539C171.21 272.539 171.866 272.203 172.368 271.531L173.168 272.267C172.474 273.163 171.53 273.611 170.336 273.611ZM176.05 273.419H174.85V265.691H176.05V266.939C176.764 266 177.623 265.531 178.626 265.531V266.763C178.476 266.731 178.316 266.715 178.146 266.715C177.783 266.715 177.388 266.843 176.962 267.099C176.535 267.355 176.231 267.638 176.05 267.947V273.419ZM179.699 276.443L179.891 275.355C180.083 275.44 180.302 275.483 180.547 275.483C180.824 275.483 181.054 275.424 181.235 275.307C181.416 275.19 181.571 274.976 181.699 274.667L182.211 273.499L178.979 265.691H180.275L182.851 272.027L185.411 265.691H186.723L182.851 274.987C182.424 276.011 181.667 276.534 180.579 276.555C180.259 276.555 179.966 276.518 179.699 276.443ZM191.783 273.611C190.695 273.611 189.825 273.158 189.175 272.251V276.363H187.975V265.691H189.175V266.843C189.463 266.438 189.836 266.112 190.295 265.867C190.753 265.622 191.249 265.499 191.783 265.499C192.807 265.499 193.633 265.867 194.263 266.603C194.903 267.328 195.223 268.31 195.223 269.547C195.223 270.784 194.903 271.771 194.263 272.507C193.633 273.243 192.807 273.611 191.783 273.611ZM191.479 272.539C192.236 272.539 192.839 272.262 193.287 271.707C193.735 271.142 193.959 270.422 193.959 269.547C193.959 268.672 193.735 267.958 193.287 267.403C192.839 266.848 192.236 266.571 191.479 266.571C191.02 266.571 190.572 266.694 190.135 266.939C189.708 267.174 189.388 267.462 189.175 267.803V271.291C189.388 271.643 189.708 271.942 190.135 272.187C190.572 272.422 191.02 272.539 191.479 272.539ZM199.083 273.611C198.518 273.611 198.091 273.456 197.803 273.147C197.515 272.838 197.371 272.39 197.371 271.803V266.747H196.091V265.691H197.371V263.579H198.571V265.691H200.139V266.747H198.571V271.547C198.571 271.846 198.635 272.086 198.763 272.267C198.902 272.448 199.099 272.539 199.355 272.539C199.707 272.539 199.979 272.432 200.171 272.219L200.523 273.115C200.171 273.446 199.691 273.611 199.083 273.611ZM207.978 272.443C207.285 273.222 206.362 273.611 205.21 273.611C204.058 273.611 203.13 273.222 202.426 272.443C201.733 271.664 201.386 270.699 201.386 269.547C201.386 268.395 201.733 267.435 202.426 266.667C203.13 265.888 204.058 265.499 205.21 265.499C206.362 265.499 207.285 265.888 207.978 266.667C208.682 267.435 209.034 268.395 209.034 269.547C209.034 270.699 208.682 271.664 207.978 272.443ZM203.322 271.675C203.791 272.251 204.421 272.539 205.21 272.539C205.999 272.539 206.623 272.251 207.082 271.675C207.541 271.088 207.77 270.379 207.77 269.547C207.77 268.715 207.541 268.011 207.082 267.435C206.623 266.859 205.999 266.571 205.21 266.571C204.421 266.571 203.791 266.864 203.322 267.451C202.863 268.027 202.634 268.726 202.634 269.547C202.634 270.379 202.863 271.088 203.322 271.675ZM218.923 273.611C217.835 273.611 216.966 273.158 216.315 272.251V276.363H215.115V265.691H216.315V266.843C216.603 266.438 216.977 266.112 217.435 265.867C217.894 265.622 218.39 265.499 218.923 265.499C219.947 265.499 220.774 265.867 221.403 266.603C222.043 267.328 222.363 268.31 222.363 269.547C222.363 270.784 222.043 271.771 221.403 272.507C220.774 273.243 219.947 273.611 218.923 273.611ZM218.619 272.539C219.377 272.539 219.979 272.262 220.427 271.707C220.875 271.142 221.099 270.422 221.099 269.547C221.099 268.672 220.875 267.958 220.427 267.403C219.979 266.848 219.377 266.571 218.619 266.571C218.161 266.571 217.713 266.694 217.275 266.939C216.849 267.174 216.529 267.462 216.315 267.803V271.291C216.529 271.643 216.849 271.942 217.275 272.187C217.713 272.422 218.161 272.539 218.619 272.539ZM230.304 273.419H229.104V272.539C228.453 273.254 227.6 273.611 226.544 273.611C225.829 273.611 225.2 273.382 224.656 272.923C224.112 272.464 223.84 271.84 223.84 271.051C223.84 270.24 224.106 269.616 224.64 269.179C225.184 268.731 225.818 268.507 226.544 268.507C227.642 268.507 228.496 268.859 229.104 269.563V268.171C229.104 267.659 228.922 267.259 228.56 266.971C228.197 266.683 227.728 266.539 227.152 266.539C226.245 266.539 225.456 266.896 224.784 267.611L224.224 266.779C225.045 265.926 226.074 265.499 227.312 265.499C228.197 265.499 228.917 265.712 229.472 266.139C230.026 266.566 230.304 267.222 230.304 268.107V273.419ZM226.976 272.747C227.936 272.747 228.645 272.427 229.104 271.787V270.331C228.645 269.691 227.936 269.371 226.976 269.371C226.421 269.371 225.962 269.531 225.6 269.851C225.248 270.16 225.072 270.566 225.072 271.067C225.072 271.558 225.248 271.963 225.6 272.283C225.962 272.592 226.421 272.747 226.976 272.747ZM232.277 276.443L232.469 275.355C232.661 275.44 232.88 275.483 233.125 275.483C233.402 275.483 233.632 275.424 233.813 275.307C233.994 275.19 234.149 274.976 234.277 274.667L234.789 273.499L231.557 265.691H232.853L235.429 272.027L237.989 265.691H239.301L235.429 274.987C235.002 276.011 234.245 276.534 233.157 276.555C232.837 276.555 232.544 276.518 232.277 276.443ZM251.081 273.419H249.881V268.171C249.881 267.104 249.406 266.571 248.457 266.571C248.073 266.571 247.689 266.688 247.305 266.923C246.921 267.158 246.622 267.435 246.409 267.755V273.419H245.209V268.171C245.209 267.104 244.734 266.571 243.785 266.571C243.411 266.571 243.033 266.688 242.649 266.923C242.275 267.158 241.977 267.44 241.753 267.771V273.419H240.553V265.691H241.753V266.811C241.945 266.512 242.281 266.219 242.761 265.931C243.241 265.643 243.737 265.499 244.249 265.499C244.814 265.499 245.273 265.632 245.625 265.899C245.977 266.166 246.211 266.512 246.329 266.939C246.563 266.555 246.921 266.219 247.401 265.931C247.881 265.643 248.387 265.499 248.921 265.499C250.361 265.499 251.081 266.278 251.081 267.835V273.419ZM256.963 273.611C255.811 273.611 254.867 273.238 254.131 272.491C253.395 271.734 253.027 270.752 253.027 269.547C253.027 268.416 253.389 267.462 254.115 266.683C254.84 265.894 255.747 265.499 256.835 265.499C257.976 265.499 258.877 265.894 259.539 266.683C260.211 267.462 260.547 268.448 260.547 269.643V269.947H254.291C254.344 270.704 254.621 271.339 255.123 271.851C255.624 272.363 256.275 272.619 257.075 272.619C258.035 272.619 258.829 272.294 259.459 271.643L260.035 272.427C259.245 273.216 258.221 273.611 256.963 273.611ZM259.363 269.067C259.352 268.406 259.128 267.814 258.691 267.291C258.253 266.758 257.629 266.491 256.819 266.491C256.051 266.491 255.443 266.752 254.995 267.275C254.557 267.798 254.323 268.395 254.291 269.067H259.363ZM268.906 273.419H267.706V268.363C267.706 267.712 267.557 267.254 267.258 266.987C266.96 266.71 266.533 266.571 265.978 266.571C265.53 266.571 265.093 266.688 264.666 266.923C264.25 267.158 263.925 267.44 263.69 267.771V273.419H262.49V265.691H263.69V266.811C263.989 266.459 264.389 266.155 264.89 265.899C265.392 265.632 265.909 265.499 266.442 265.499C268.085 265.499 268.906 266.331 268.906 267.995V273.419ZM273.255 273.611C272.689 273.611 272.263 273.456 271.975 273.147C271.687 272.838 271.543 272.39 271.543 271.803V266.747H270.263V265.691H271.543V263.579H272.743V265.691H274.311V266.747H272.743V271.547C272.743 271.846 272.807 272.086 272.935 272.267C273.073 272.448 273.271 272.539 273.527 272.539C273.879 272.539 274.151 272.432 274.343 272.219L274.695 273.115C274.343 273.446 273.863 273.611 273.255 273.611ZM278.454 273.611C277.142 273.611 276.102 273.206 275.334 272.395L275.958 271.531C276.225 271.84 276.587 272.102 277.046 272.315C277.515 272.528 278.001 272.635 278.502 272.635C279.078 272.635 279.526 272.512 279.846 272.267C280.166 272.022 280.326 271.702 280.326 271.307C280.326 270.966 280.161 270.699 279.83 270.507C279.499 270.304 279.099 270.155 278.63 270.059C278.171 269.952 277.707 269.835 277.238 269.707C276.769 269.568 276.369 269.339 276.038 269.019C275.707 268.688 275.542 268.256 275.542 267.723C275.542 267.094 275.798 266.566 276.31 266.139C276.833 265.712 277.537 265.499 278.422 265.499C279.585 265.499 280.539 265.872 281.286 266.619L280.726 267.451C280.182 266.8 279.414 266.475 278.422 266.475C277.899 266.475 277.483 266.592 277.174 266.827C276.865 267.051 276.71 267.339 276.71 267.691C276.71 268 276.875 268.246 277.206 268.427C277.537 268.598 277.931 268.736 278.39 268.843C278.859 268.939 279.329 269.056 279.798 269.195C280.267 269.334 280.667 269.579 280.998 269.931C281.329 270.272 281.494 270.72 281.494 271.275C281.494 271.958 281.227 272.518 280.694 272.955C280.161 273.392 279.414 273.611 278.454 273.611ZM295.456 273.419H294.256L292.24 267.211L290.224 273.419H289.024L286.56 265.691H287.808L289.696 271.851L291.728 265.691H292.752L294.784 271.851L296.672 265.691H297.92L295.456 273.419ZM305.462 272.443C304.769 273.222 303.846 273.611 302.694 273.611C301.542 273.611 300.614 273.222 299.91 272.443C299.217 271.664 298.87 270.699 298.87 269.547C298.87 268.395 299.217 267.435 299.91 266.667C300.614 265.888 301.542 265.499 302.694 265.499C303.846 265.499 304.769 265.888 305.462 266.667C306.166 267.435 306.518 268.395 306.518 269.547C306.518 270.699 306.166 271.664 305.462 272.443ZM300.806 271.675C301.276 272.251 301.905 272.539 302.694 272.539C303.484 272.539 304.108 272.251 304.566 271.675C305.025 271.088 305.254 270.379 305.254 269.547C305.254 268.715 305.025 268.011 304.566 267.435C304.108 266.859 303.484 266.571 302.694 266.571C301.905 266.571 301.276 266.864 300.806 267.451C300.348 268.027 300.118 268.726 300.118 269.547C300.118 270.379 300.348 271.088 300.806 271.675ZM309.675 273.419H308.475V265.691H309.675V266.939C310.389 266 311.248 265.531 312.251 265.531V266.763C312.101 266.731 311.941 266.715 311.771 266.715C311.408 266.715 311.013 266.843 310.587 267.099C310.16 267.355 309.856 267.638 309.675 267.947V273.419ZM314.956 273.419H313.756V262.747H314.956V273.419ZM324.15 273.419H322.95V272.267C322.288 273.163 321.419 273.611 320.342 273.611C319.318 273.611 318.486 273.248 317.846 272.523C317.216 271.787 316.902 270.8 316.902 269.563C316.902 268.336 317.216 267.355 317.846 266.619C318.486 265.872 319.318 265.499 320.342 265.499C321.408 265.499 322.278 265.952 322.95 266.859V262.747H324.15V273.419ZM320.63 272.539C321.099 272.539 321.547 272.422 321.974 272.187C322.4 271.952 322.726 271.664 322.95 271.323V267.819C322.726 267.467 322.395 267.174 321.958 266.939C321.531 266.694 321.088 266.571 320.63 266.571C319.872 266.571 319.27 266.854 318.822 267.419C318.374 267.974 318.15 268.688 318.15 269.563C318.15 270.438 318.374 271.152 318.822 271.707C319.27 272.262 319.872 272.539 320.63 272.539ZM334.441 273.419H333.241L331.225 267.211L329.209 273.419H328.009L325.545 265.691H326.793L328.681 271.851L330.713 265.691H331.737L333.769 271.851L335.657 265.691H336.905L334.441 273.419ZM338.895 264.587C338.681 264.587 338.495 264.512 338.335 264.363C338.175 264.203 338.095 264.011 338.095 263.787C338.095 263.563 338.175 263.371 338.335 263.211C338.495 263.051 338.681 262.971 338.895 262.971C339.119 262.971 339.311 263.051 339.471 263.211C339.631 263.371 339.711 263.563 339.711 263.787C339.711 264.011 339.631 264.203 339.471 264.363C339.311 264.512 339.119 264.587 338.895 264.587ZM339.503 273.419H338.303V265.691H339.503V273.419ZM348.697 273.419H347.497V272.267C346.835 273.163 345.966 273.611 344.889 273.611C343.865 273.611 343.033 273.248 342.393 272.523C341.763 271.787 341.449 270.8 341.449 269.563C341.449 268.336 341.763 267.355 342.393 266.619C343.033 265.872 343.865 265.499 344.889 265.499C345.955 265.499 346.825 265.952 347.497 266.859V262.747H348.697V273.419ZM345.177 272.539C345.646 272.539 346.094 272.422 346.521 272.187C346.947 271.952 347.273 271.664 347.497 271.323V267.819C347.273 267.467 346.942 267.174 346.505 266.939C346.078 266.694 345.635 266.571 345.177 266.571C344.419 266.571 343.817 266.854 343.369 267.419C342.921 267.974 342.697 268.688 342.697 269.563C342.697 270.438 342.921 271.152 343.369 271.707C343.817 272.262 344.419 272.539 345.177 272.539ZM354.588 273.611C353.436 273.611 352.492 273.238 351.756 272.491C351.02 271.734 350.652 270.752 350.652 269.547C350.652 268.416 351.014 267.462 351.74 266.683C352.465 265.894 353.372 265.499 354.46 265.499C355.601 265.499 356.502 265.894 357.164 266.683C357.836 267.462 358.172 268.448 358.172 269.643V269.947H351.916C351.969 270.704 352.246 271.339 352.748 271.851C353.249 272.363 353.9 272.619 354.7 272.619C355.66 272.619 356.454 272.294 357.084 271.643L357.66 272.427C356.87 273.216 355.846 273.611 354.588 273.611ZM356.988 269.067C356.977 268.406 356.753 267.814 356.316 267.291C355.878 266.758 355.254 266.491 354.444 266.491C353.676 266.491 353.068 266.752 352.62 267.275C352.182 267.798 351.948 268.395 351.916 269.067H356.988Z" fill="#6B7385"/>
<path d="M487.337 234.178C487.337 234.178 495.432 233.545 496.572 234.685C497.712 235.825 497.079 243.92 497.079 243.92M496.087 235.17L484.421 246.836" stroke="black" stroke-width="1.75" stroke-linecap="round" stroke-linejoin="round"/>
</g>
<defs>
<filter id="filter0_d_958_172796" x="-5.10216e-05" y="0.0003407" width="525.674" height="303.674" filterUnits="userSpaceOnUse" color-interpolation-filters="sRGB">
<feFlood flood-opacity="0" result="BackgroundImageFix"/>
<feColorMatrix in="SourceAlpha" type="matrix" values="0 0 0 0 0 0 0 0 0 0 0 0 0 0 0 0 0 0 127 0" result="hardAlpha"/>
<feOffset dy="2.4186"/>
<feGaussianBlur stdDeviation="2.4186"/>
<feComposite in2="hardAlpha" operator="out"/>
<feColorMatrix type="matrix" values="0 0 0 0 0 0 0 0 0 0 0 0 0 0 0 0 0 0 0.09 0"/>
<feBlend mode="normal" in2="BackgroundImageFix" result="effect1_dropShadow_958_172796"/>
<feBlend mode="normal" in="SourceGraphic" in2="effect1_dropShadow_958_172796" result="shape"/>
</filter>
<linearGradient id="paint0_linear_958_172796" x1="331.65" y1="46.9527" x2="597.889" y2="180.638" gradientUnits="userSpaceOnUse">
<stop offset="0.4115" stop-color="#D91AFF"/>
<stop offset="1" stop-color="#1AA4FF"/>
</linearGradient>
<linearGradient id="paint1_linear_958_172796" x1="622.18" y1="-171.654" x2="311.956" y2="446.166" gradientUnits="userSpaceOnUse">
<stop stop-color="#D919FF"/>
<stop offset="1" stop-color="#7919FF"/>
</linearGradient>
<linearGradient id="paint2_linear_958_172796" x1="622.18" y1="-171.654" x2="311.956" y2="446.166" gradientUnits="userSpaceOnUse">
<stop stop-color="#D919FF"/>
<stop offset="1" stop-color="#7919FF"/>
</linearGradient>
<linearGradient id="paint3_linear_958_172796" x1="162.882" y1="-43.9456" x2="48.7676" y2="231.249" gradientUnits="userSpaceOnUse">
<stop offset="0.4115" stop-color="#D91AFF"/>
<stop offset="1" stop-color="#1AA4FF"/>
</linearGradient>
<linearGradient id="paint4_linear_958_172796" x1="-199.883" y1="-19.4952" x2="438.723" y2="245.313" gradientUnits="userSpaceOnUse">
<stop stop-color="#D919FF"/>
<stop offset="1" stop-color="#7919FF"/>
</linearGradient>
<linearGradient id="paint5_linear_958_172796" x1="-199.883" y1="-19.4952" x2="438.723" y2="245.313" gradientUnits="userSpaceOnUse">
<stop stop-color="#D919FF"/>
<stop offset="1" stop-color="#7919FF"/>
</linearGradient>
<clipPath id="clip0_958_172796">
<rect x="10.8372" y="8.41895" width="504" height="204" rx="16" fill="white"/>
</clipPath>
<clipPath id="clip1_958_172796">
<rect width="271" height="688" fill="white" transform="matrix(-0.893666 -0.448733 -0.448733 0.893666 742.749 -108.975)"/>
</clipPath>
<clipPath id="clip2_958_172796">
<rect width="271" height="688" fill="white" transform="matrix(-0.893666 -0.448733 -0.448733 0.893666 742.749 -108.975)"/>
</clipPath>
<clipPath id="clip3_958_172796">
<rect width="271" height="688" fill="white" transform="matrix(-0.893666 -0.448733 -0.448733 0.893666 742.749 -108.975)"/>
</clipPath>
<clipPath id="clip4_958_172796">
<rect width="271" height="688" fill="white" transform="translate(-250.163 106.75) rotate(-67.4778)"/>
</clipPath>
<clipPath id="clip5_958_172796">
<rect width="271" height="688" fill="white" transform="translate(-250.163 106.75) rotate(-67.4778)"/>
</clipPath>
<clipPath id="clip6_958_172796">
<rect width="271" height="688" fill="white" transform="translate(-250.163 106.75) rotate(-67.4778)"/>
</clipPath>
</defs>
</svg>
