<svg width="526" height="304" viewBox="0 0 526 304" fill="none" xmlns="http://www.w3.org/2000/svg">
<g filter="url(#filter0_d_958_172639)">
<rect x="4.83716" y="2.41846" width="516" height="294" rx="22" fill="#F7F9FC" shape-rendering="crispEdges"/>
<rect x="5.44181" y="3.02311" width="514.791" height="292.791" rx="21.3953" stroke="#C5CDDB" stroke-width="1.2093" shape-rendering="crispEdges"/>
<g clip-path="url(#clip0_958_172639)">
<rect x="10.8372" y="8.41846" width="504" height="204" rx="16" fill="url(#paint0_linear_958_172639)"/>
<path d="M980.905 46.8996C929.829 -45.4762 857.614 -153.781 798.026 -138.465C735.089 -122.289 742.179 17.4154 672.689 53.5773C589.943 96.6372 526.481 -73.6529 396.702 -114.32C205.553 -174.218 131.67 128.913 -36.2564 80.7375C-105.052 61.001 -470.558 -393.567 -577.662 -671.975" stroke="#9D9EA7" stroke-width="1.3" stroke-miterlimit="10"/>
<path d="M978.007 56.1619C926.931 -36.2138 854.716 -144.518 795.128 -129.203C732.191 -113.026 739.28 26.6775 669.79 62.8394C587.045 105.899 523.583 -64.3907 393.804 -105.058C202.655 -164.955 128.772 138.175 -39.1545 89.9996C-107.951 70.2632 -465.479 -373.332 -572.583 -651.74" stroke="#9D9EA7" stroke-width="1.3" stroke-miterlimit="10"/>
<path d="M975.109 65.4242C924.034 -26.9515 851.818 -135.256 792.23 -119.941C729.293 -103.764 736.383 35.9398 666.893 72.1019C584.148 115.162 520.686 -55.1284 390.906 -95.7954C199.757 -155.693 125.874 147.437 -42.052 99.262C-110.848 79.5255 -460.4 -353.097 -567.504 -631.505" stroke="#9D9EA7" stroke-width="1.3" stroke-miterlimit="10"/>
<path d="M972.212 74.6869C921.136 -17.6888 848.921 -125.993 789.333 -110.678C726.396 -94.5014 733.485 45.2026 663.995 81.3647C581.25 124.424 517.788 -45.8656 388.009 -86.5327C196.86 -146.43 122.977 156.7 -44.9495 108.525C-113.746 88.7882 -455.321 -332.861 -562.424 -611.269" stroke="#9D9EA7" stroke-width="1.3" stroke-miterlimit="10"/>
<path d="M969.314 83.9492C918.238 -8.42655 846.023 -116.731 786.435 -101.416C723.497 -85.2391 730.587 54.465 661.097 90.6269C578.352 133.687 514.89 -36.6033 385.111 -77.2704C193.962 -137.168 120.079 165.962 -47.8476 117.787C-116.644 98.0505 -450.242 -312.626 -557.346 -591.033" stroke="#9D9EA7" stroke-width="1.3" stroke-miterlimit="10"/>
<path d="M966.416 93.2112C915.34 0.83537 843.125 -107.469 783.537 -92.1537C720.6 -75.9773 727.69 63.7268 658.199 99.8888C575.454 142.949 511.992 -27.3414 382.213 -68.0085C191.064 -127.906 117.181 175.224 -50.7455 127.049C-119.542 107.312 -445.163 -292.391 -552.267 -570.798" stroke="#9D9EA7" stroke-width="1.3" stroke-miterlimit="10"/>
<path d="M963.519 102.474C912.443 10.0978 840.227 -98.2069 780.639 -82.8913C717.702 -66.7149 724.792 72.9891 655.302 109.151C572.557 152.211 509.095 -18.0792 379.315 -58.7463C188.166 -118.644 114.283 184.486 -53.6431 136.311C-122.439 116.575 -440.084 -272.155 -547.187 -550.563" stroke="#9D9EA7" stroke-width="1.3" stroke-miterlimit="10"/>
<path d="M960.62 111.736C909.544 19.3604 837.329 -88.9442 777.741 -73.6287C714.804 -57.4523 721.894 82.2518 652.404 118.414C569.659 161.474 506.196 -8.81648 376.417 -49.4835C185.268 -109.381 111.385 193.749 -56.5414 145.574C-125.337 125.837 -435.005 -251.92 -542.108 -530.327" stroke="#9D9EA7" stroke-width="1.3" stroke-miterlimit="10"/>
<path d="M957.722 120.998C906.646 28.6226 834.431 -79.6818 774.843 -64.3664C711.906 -48.19 718.996 91.5139 649.505 127.676C566.76 170.736 503.298 0.445754 373.519 -40.2213C182.37 -100.119 108.487 203.011 -59.4393 154.836C-128.235 135.1 -429.926 -231.684 -537.03 -510.092" stroke="#9D9EA7" stroke-width="1.3" stroke-miterlimit="10"/>
<path d="M954.824 130.261C903.749 37.8852 831.533 -70.4194 771.945 -55.1039C709.008 -38.9274 716.098 100.777 646.608 136.939C563.863 179.998 500.401 9.70829 370.621 -30.9589C179.472 -90.8564 105.589 212.274 -62.3371 164.099C-131.133 144.362 -424.847 -211.449 -531.951 -489.857" stroke="#9D9EA7" stroke-width="1.3" stroke-miterlimit="10"/>
<path d="M951.927 139.523C900.851 47.1474 828.636 -61.1572 769.048 -45.8417C706.111 -29.6652 713.201 110.039 643.711 146.201C560.965 189.261 497.503 18.9707 367.724 -21.6964C176.575 -81.594 102.692 221.536 -65.2343 173.361C-134.03 153.625 -419.767 -191.213 -526.871 -469.621" stroke="#9D9EA7" stroke-width="1.3" stroke-miterlimit="10"/>
<path d="M949.029 148.785C897.953 56.4096 825.738 -51.895 766.15 -36.5794C703.213 -20.403 710.303 119.301 640.813 155.463C558.067 198.523 494.605 28.2328 364.826 -12.4342C173.677 -72.3318 99.7938 230.798 -68.1324 182.623C-136.928 162.887 -414.688 -170.978 -521.792 -449.386" stroke="#9D9EA7" stroke-width="1.3" stroke-miterlimit="10"/>
<path d="M946.131 158.048C895.056 65.672 822.84 -42.6326 763.252 -27.3171C700.315 -11.1407 707.405 128.563 637.915 164.725C555.17 207.785 491.708 37.4951 361.928 -3.17195C170.779 -63.0695 96.8961 240.061 -71.0301 191.885C-139.826 172.149 -409.609 -150.743 -516.713 -429.151" stroke="#9D9EA7" stroke-width="1.3" stroke-miterlimit="10"/>
<path d="M943.233 167.31C892.157 74.9343 819.942 -33.3703 760.354 -18.0547C697.417 -1.87832 704.507 137.826 635.017 173.988C552.272 217.048 488.809 46.7575 359.03 6.09041C167.881 -53.8072 93.9978 249.323 -73.9284 201.148C-142.724 181.411 -404.53 -130.508 -511.634 -408.915" stroke="#9D9EA7" stroke-width="1.3" stroke-miterlimit="10"/>
<path d="M940.336 176.572C889.26 84.1967 817.045 -24.1079 757.456 -8.79237C694.519 7.38399 701.609 147.088 632.119 183.25C549.374 226.31 485.912 56.0198 356.133 15.3527C164.984 -44.5448 91.1004 258.585 -76.8258 210.41C-145.622 190.674 -399.451 -110.272 -506.555 -388.68" stroke="#9D9EA7" stroke-width="1.3" stroke-miterlimit="10"/>
<path d="M937.437 185.835C886.362 93.4589 814.147 -14.8457 754.558 0.469858C691.621 16.6462 698.711 156.35 629.221 192.512C546.476 235.572 483.014 65.282 353.234 24.615C162.085 -35.2826 88.2021 267.848 -79.724 219.672C-148.52 199.936 -394.372 -90.0368 -501.476 -368.445" stroke="#9D9EA7" stroke-width="1.3" stroke-miterlimit="10"/>
<path d="M934.54 195.097C883.464 102.721 811.249 -5.58344 751.661 9.73208C688.724 25.9085 695.813 165.613 626.324 201.775C543.578 244.834 480.116 74.5444 350.337 33.8773C159.188 -26.0202 85.3047 277.11 -82.6214 228.935C-151.418 209.198 -389.293 -69.8014 -496.397 -348.209" stroke="#9D9EA7" stroke-width="1.3" stroke-miterlimit="10"/>
<path d="M931.642 204.359C880.567 111.983 808.351 3.67877 748.763 18.9944C685.826 35.1708 692.916 174.875 623.426 211.037C540.681 254.097 477.219 83.8066 347.439 43.1395C156.29 -16.758 82.4071 286.372 -85.519 238.197C-154.315 218.46 -384.213 -49.5662 -491.317 -327.974" stroke="#9D9EA7" stroke-width="1.3" stroke-miterlimit="10"/>
<path d="M928.744 213.621C877.669 121.246 805.453 12.9412 745.865 28.2568C682.928 44.4332 690.018 184.137 620.528 220.299C537.783 263.359 474.321 93.0689 344.541 52.4019C153.392 -7.49569 79.5092 295.634 -88.417 247.459C-157.213 227.723 -379.134 -29.3307 -486.238 -307.738" stroke="#9D9EA7" stroke-width="1.3" stroke-miterlimit="10"/>
<path d="M925.847 222.884C874.771 130.508 802.556 22.2034 742.968 37.5191C680.031 53.6954 687.121 193.4 617.63 229.561C534.885 272.621 471.423 102.331 341.644 61.6642C150.495 1.76652 76.6116 304.897 -91.3146 256.722C-160.111 236.985 -374.055 -9.09537 -481.159 -287.503" stroke="#9D9EA7" stroke-width="1.3" stroke-miterlimit="10"/>
<path d="M922.949 232.146C871.874 139.77 799.658 31.4658 740.07 46.7814C677.133 62.9578 684.223 202.662 614.733 238.824C531.988 281.884 468.526 111.594 338.746 70.9265C147.597 11.0289 73.7141 314.159 -94.2121 265.984C-163.008 246.247 -368.976 11.1399 -476.08 -267.268" stroke="#9D9EA7" stroke-width="1.3" stroke-miterlimit="10"/>
<path d="M920.052 241.409C868.976 149.033 796.761 40.7283 737.172 56.0438C674.235 72.2201 681.325 211.924 611.835 248.086C529.09 291.146 465.628 120.856 335.848 80.1889C144.699 20.2913 70.8161 323.422 -97.11 275.246C-165.906 255.51 -363.897 31.3753 -471.001 -247.032" stroke="#9D9EA7" stroke-width="1.3" stroke-miterlimit="10"/>
<path d="M917.153 250.671C866.078 158.295 793.862 49.9904 734.274 65.3059C671.337 81.4823 678.427 221.186 608.937 257.348C526.192 300.408 462.729 130.118 332.95 89.4511C141.801 29.5535 67.9179 332.684 -100.008 284.508C-168.804 264.772 -358.818 51.6106 -465.922 -226.797" stroke="#9D9EA7" stroke-width="1.3" stroke-miterlimit="10"/>
<path d="M914.255 259.933C863.179 167.557 790.964 59.2528 731.376 74.5683C668.438 90.7448 675.528 230.449 606.038 266.611C523.293 309.671 459.831 139.38 330.052 98.7134C138.903 38.8159 65.0193 341.946 -102.907 293.771C-171.703 274.034 -353.74 71.8461 -460.844 -206.562" stroke="#9D9EA7" stroke-width="1.3" stroke-miterlimit="10"/>
<path d="M911.357 269.195C860.282 176.82 788.066 68.5151 728.478 83.8307C665.541 100.007 672.631 239.711 603.141 275.873C520.396 318.933 456.934 148.643 327.154 107.976C136.005 48.0782 62.122 351.208 -105.804 303.033C-174.6 283.297 -348.66 92.0815 -455.764 -186.326" stroke="#9D9EA7" stroke-width="1.3" stroke-miterlimit="10"/>
<path d="M908.46 278.458C857.384 186.082 785.169 77.7772 725.58 93.0928C662.643 109.269 669.733 248.973 600.243 285.135C517.498 328.195 454.036 157.905 324.257 117.238C133.108 57.3405 59.2243 360.471 -108.702 312.295C-177.498 292.559 -343.581 112.317 -450.685 -166.091" stroke="#9D9EA7" stroke-width="1.3" stroke-miterlimit="10"/>
<path d="M905.562 287.72C854.486 195.345 782.271 87.04 722.682 102.356C659.745 118.532 666.835 258.236 597.345 294.398C514.6 337.458 451.138 167.168 321.359 126.501C130.209 66.6032 56.3263 369.733 -111.6 321.558C-180.396 301.822 -338.502 132.552 -445.606 -145.855" stroke="#9D9EA7" stroke-width="1.3" stroke-miterlimit="10"/>
<path d="M902.664 296.982C851.588 204.607 779.373 96.3019 719.785 111.617C656.848 127.794 663.938 267.498 594.448 303.66C511.702 346.72 448.24 176.43 318.461 135.763C127.312 75.865 53.4289 378.995 -114.497 330.82C-183.293 311.084 -333.423 152.787 -440.527 -125.62" stroke="#9D9EA7" stroke-width="1.3" stroke-miterlimit="10"/>
<path d="M899.766 306.245C848.69 213.869 776.475 105.565 716.887 120.88C653.95 137.057 661.04 276.761 591.55 312.923C508.804 355.983 445.342 185.693 315.563 145.025C124.414 85.1279 50.5307 388.258 -117.395 340.083C-186.191 320.346 -328.344 173.023 -435.448 -105.384" stroke="#9D9EA7" stroke-width="1.3" stroke-miterlimit="10"/>
<path d="M896.869 315.507C845.793 223.132 773.578 114.827 713.989 130.143C651.052 146.319 658.142 286.023 588.652 322.185C505.907 365.245 442.445 194.955 312.666 154.288C121.516 94.3902 47.6333 397.52 -120.293 349.345C-189.089 329.609 -323.265 193.259 -430.368 -85.1491" stroke="#9D9EA7" stroke-width="1.3" stroke-miterlimit="10"/>
<path d="M893.971 324.769C842.896 232.394 770.68 124.089 711.092 139.405C648.155 155.581 655.245 295.285 585.755 331.447C503.01 374.507 439.547 204.217 309.768 163.55C118.619 103.652 44.7359 406.782 -123.19 358.607C-191.986 338.87 -318.185 213.493 -425.289 -64.9142" stroke="#9D9EA7" stroke-width="1.3" stroke-miterlimit="10"/>
<path d="M891.072 334.032C839.997 241.656 767.781 133.352 708.193 148.667C645.256 164.844 652.346 304.548 582.856 340.71C500.111 383.769 436.649 213.479 306.87 172.812C115.72 112.915 41.8372 416.045 -126.089 367.87C-194.885 348.133 -313.107 233.729 -420.211 -44.6783" stroke="#9D9EA7" stroke-width="1.3" stroke-miterlimit="10"/>
<path d="M888.175 343.294C837.099 250.918 764.884 142.614 705.296 157.929C642.359 174.106 649.449 313.81 579.958 349.972C497.213 393.032 433.751 222.742 303.972 182.075C112.823 122.177 38.9396 425.307 -128.987 377.132C-197.783 357.396 -308.028 253.965 -415.131 -24.443" stroke="#9D9EA7" stroke-width="1.3" stroke-miterlimit="10"/>
<path d="M885.277 352.557C834.201 260.181 761.986 151.876 702.398 167.192C639.461 183.368 646.551 323.072 577.06 359.234C494.315 402.294 430.853 232.004 301.074 191.337C109.925 131.439 36.0418 434.57 -131.884 386.394C-200.68 366.658 -302.949 274.2 -410.052 -4.20773" stroke="#9D9EA7" stroke-width="1.3" stroke-miterlimit="10"/>
<path d="M882.38 361.819C831.304 269.443 759.088 161.139 699.5 176.454C636.563 192.63 643.653 332.335 574.163 368.497C491.418 411.556 427.956 241.266 298.176 200.599C107.027 140.702 33.144 443.832 -134.782 395.657C-203.578 375.92 -297.869 294.435 -404.973 16.0277" stroke="#9D9EA7" stroke-width="1.3" stroke-miterlimit="10"/>
<path d="M198.547 95.4185H192.797V90.4185H209.797V95.4185H204.047V125.418H198.547V95.4185ZM220.714 125.918C218.014 125.918 215.947 125.152 214.514 123.618C213.081 122.085 212.364 119.918 212.364 117.118V98.7185C212.364 95.9185 213.081 93.7518 214.514 92.2185C215.947 90.6851 218.014 89.9185 220.714 89.9185C223.414 89.9185 225.481 90.6851 226.914 92.2185C228.347 93.7518 229.064 95.9185 229.064 98.7185V117.118C229.064 119.918 228.347 122.085 226.914 123.618C225.481 125.152 223.414 125.918 220.714 125.918ZM220.714 120.918C222.614 120.918 223.564 119.768 223.564 117.468V98.3685C223.564 96.0685 222.614 94.9185 220.714 94.9185C218.814 94.9185 217.864 96.0685 217.864 98.3685V117.468C217.864 119.768 218.814 120.918 220.714 120.918ZM233.284 90.4185H238.784V105.168L245.784 90.4185H251.284L244.734 103.268L251.384 125.418H245.634L240.984 109.818L238.784 114.268V125.418H233.284V90.4185ZM254.487 90.4185H269.487V95.4185H259.987V104.668H267.537V109.668H259.987V120.418H269.487V125.418H254.487V90.4185ZM273.151 90.4185H280.051L285.401 111.368H285.501V90.4185H290.401V125.418H284.751L278.151 99.8685H278.051V125.418H273.151V90.4185ZM302.739 125.918C300.072 125.918 298.039 125.168 296.639 123.668C295.239 122.135 294.539 119.952 294.539 117.118V116.468H299.739V117.468C299.739 119.768 300.689 120.918 302.589 120.918C303.622 120.918 304.389 120.602 304.889 119.968C305.389 119.335 305.639 118.218 305.639 116.618V109.918H305.539C304.572 111.952 302.905 112.968 300.539 112.968C298.539 112.968 297.022 112.285 295.989 110.918C294.955 109.552 294.439 107.568 294.439 104.968V98.7185C294.439 95.9185 295.155 93.7518 296.589 92.2185C298.022 90.6851 300.089 89.9185 302.789 89.9185C305.489 89.9185 307.555 90.6851 308.989 92.2185C310.422 93.7518 311.139 95.9185 311.139 98.7185V116.818C311.139 122.885 308.339 125.918 302.739 125.918ZM302.789 107.968C304.689 107.968 305.639 106.818 305.639 104.518V98.3185C305.639 96.0518 304.689 94.9185 302.789 94.9185C300.889 94.9185 299.939 96.0518 299.939 98.3185V104.518C299.939 106.818 300.889 107.968 302.789 107.968ZM323.258 125.918C320.592 125.918 318.558 125.168 317.158 123.668C315.758 122.135 315.058 119.952 315.058 117.118V116.468H320.258V117.468C320.258 119.768 321.208 120.918 323.108 120.918C324.142 120.918 324.908 120.602 325.408 119.968C325.908 119.335 326.158 118.218 326.158 116.618V109.918H326.058C325.092 111.952 323.425 112.968 321.058 112.968C319.058 112.968 317.542 112.285 316.508 110.918C315.475 109.552 314.958 107.568 314.958 104.968V98.7185C314.958 95.9185 315.675 93.7518 317.108 92.2185C318.542 90.6851 320.608 89.9185 323.308 89.9185C326.008 89.9185 328.075 90.6851 329.508 92.2185C330.942 93.7518 331.658 95.9185 331.658 98.7185V116.818C331.658 122.885 328.858 125.918 323.258 125.918ZM323.308 107.968C325.208 107.968 326.158 106.818 326.158 104.518V98.3185C326.158 96.0518 325.208 94.9185 323.308 94.9185C321.408 94.9185 320.458 96.0518 320.458 98.3185V104.518C320.458 106.818 321.408 107.968 323.308 107.968Z" fill="white"/>
</g>
<path d="M28.9169 246.658C26.9169 246.658 25.2503 246.018 23.9169 244.738C22.5836 243.445 21.9169 241.785 21.9169 239.758C21.9169 237.732 22.5836 236.078 23.9169 234.798C25.2503 233.505 26.9169 232.858 28.9169 232.858C31.2369 232.858 33.0236 233.858 34.2769 235.858L32.2769 236.878C31.9436 236.305 31.4703 235.838 30.8569 235.478C30.2569 235.118 29.6103 234.938 28.9169 234.938C27.5969 234.938 26.4969 235.392 25.6169 236.298C24.7503 237.205 24.3169 238.358 24.3169 239.758C24.3169 241.158 24.7503 242.312 25.6169 243.218C26.4969 244.125 27.5969 244.578 28.9169 244.578C29.6236 244.578 30.2769 244.398 30.8769 244.038C31.4769 243.678 31.9436 243.212 32.2769 242.638L34.2769 243.658C32.9969 245.658 31.2103 246.658 28.9169 246.658ZM40.0297 246.638C38.4697 246.638 37.1964 246.145 36.2097 245.158L37.2897 243.398C38.0364 244.172 38.9497 244.558 40.0297 244.558C41.1631 244.558 42.0297 244.132 42.6297 243.278C43.2431 242.412 43.5497 241.378 43.5497 240.178V239.778C43.2031 240.272 42.7031 240.712 42.0497 241.098C41.3964 241.472 40.7031 241.658 39.9697 241.658C38.7031 241.658 37.6364 241.278 36.7697 240.518C35.9164 239.758 35.4897 238.698 35.4897 237.338C35.4897 236.072 35.9431 235.012 36.8497 234.158C37.7697 233.292 38.9564 232.858 40.4097 232.858C41.6631 232.858 42.7097 233.185 43.5497 233.838C44.4031 234.478 45.0097 235.305 45.3697 236.318C45.7297 237.318 45.9097 238.465 45.9097 239.758C45.9097 241.758 45.3964 243.405 44.3697 244.698C43.3431 245.992 41.8964 246.638 40.0297 246.638ZM40.5897 239.638C41.1631 239.638 41.7097 239.498 42.2297 239.218C42.7497 238.938 43.1764 238.558 43.5097 238.078C43.4431 237.238 43.1631 236.505 42.6697 235.878C42.1897 235.252 41.4764 234.938 40.5297 234.938C39.7164 234.938 39.0697 235.178 38.5897 235.658C38.1097 236.138 37.8697 236.672 37.8697 237.258C37.8697 238.032 38.1297 238.625 38.6497 239.038C39.1697 239.438 39.8164 239.638 40.5897 239.638ZM52.0415 246.638C50.4815 246.638 49.2081 246.145 48.2215 245.158L49.3015 243.398C50.0481 244.172 50.9615 244.558 52.0415 244.558C53.1748 244.558 54.0415 244.132 54.6415 243.278C55.2548 242.412 55.5615 241.378 55.5615 240.178V239.778C55.2148 240.272 54.7148 240.712 54.0615 241.098C53.4081 241.472 52.7148 241.658 51.9815 241.658C50.7148 241.658 49.6481 241.278 48.7815 240.518C47.9281 239.758 47.5015 238.698 47.5015 237.338C47.5015 236.072 47.9548 235.012 48.8615 234.158C49.7815 233.292 50.9681 232.858 52.4215 232.858C53.6748 232.858 54.7215 233.185 55.5615 233.838C56.4148 234.478 57.0215 235.305 57.3815 236.318C57.7415 237.318 57.9215 238.465 57.9215 239.758C57.9215 241.758 57.4081 243.405 56.3815 244.698C55.3548 245.992 53.9081 246.638 52.0415 246.638ZM52.6015 239.638C53.1748 239.638 53.7215 239.498 54.2415 239.218C54.7615 238.938 55.1881 238.558 55.5215 238.078C55.4548 237.238 55.1748 236.505 54.6815 235.878C54.2015 235.252 53.4881 234.938 52.5415 234.938C51.7281 234.938 51.0815 235.178 50.6015 235.658C50.1215 236.138 49.8815 236.672 49.8815 237.258C49.8815 238.032 50.1415 238.625 50.6615 239.038C51.1815 239.438 51.8281 239.638 52.6015 239.638ZM70.8299 246.418H68.4899V235.138H64.4499V233.078H74.8699V235.138H70.8299V246.418ZM87.465 244.718C86.185 246.012 84.5517 246.658 82.565 246.658C80.5784 246.658 78.945 246.012 77.665 244.718C76.385 243.412 75.745 241.758 75.745 239.758C75.745 237.758 76.385 236.112 77.665 234.818C78.945 233.512 80.5784 232.858 82.565 232.858C84.5517 232.858 86.185 233.512 87.465 234.818C88.745 236.112 89.385 237.758 89.385 239.758C89.385 241.758 88.745 243.412 87.465 244.718ZM82.565 244.578C83.885 244.578 84.9517 244.125 85.765 243.218C86.5784 242.298 86.985 241.145 86.985 239.758C86.985 238.358 86.5784 237.205 85.765 236.298C84.9517 235.392 83.885 234.938 82.565 234.938C81.2317 234.938 80.1584 235.392 79.345 236.298C78.545 237.205 78.145 238.358 78.145 239.758C78.145 241.158 78.545 242.312 79.345 243.218C80.1584 244.125 81.2317 244.578 82.565 244.578ZM102.498 246.418H99.618L95.138 240.798L93.978 242.158V246.418H91.638V233.078H93.978V239.438L99.198 233.078H102.098L96.678 239.378L102.498 246.418ZM113.2 246.418H104.06V233.078H113.2V235.138H106.4V238.598H113.06V240.658H106.4V244.358H113.2V246.418ZM127.163 246.418H124.903L117.943 236.898V246.418H115.603V233.078H118.003L124.823 242.338V233.078H127.163V246.418Z" fill="#0B0F1A"/>
<path d="M27.1412 273.61C25.5838 273.61 24.2772 273.098 23.2212 272.074C22.1758 271.04 21.6532 269.712 21.6532 268.09C21.6532 266.469 22.1758 265.146 23.2212 264.122C24.2772 263.088 25.5838 262.57 27.1412 262.57C28.8478 262.57 30.1972 263.274 31.1892 264.682L30.0692 265.306C29.7598 264.848 29.3438 264.474 28.8212 264.186C28.2985 263.898 27.7385 263.754 27.1412 263.754C25.9678 263.754 24.9865 264.165 24.1972 264.986C23.4185 265.797 23.0292 266.832 23.0292 268.09C23.0292 269.349 23.4185 270.389 24.1972 271.21C24.9865 272.021 25.9678 272.426 27.1412 272.426C27.7385 272.426 28.2985 272.288 28.8212 272.01C29.3438 271.722 29.7598 271.344 30.0692 270.874L31.2052 271.498C30.1705 272.906 28.8158 273.61 27.1412 273.61ZM34.0497 273.418H32.8497V265.69H34.0497V266.938C34.7643 266 35.623 265.53 36.6257 265.53V266.762C36.4763 266.73 36.3163 266.714 36.1457 266.714C35.783 266.714 35.3883 266.842 34.9617 267.098C34.535 267.354 34.231 267.637 34.0497 267.946V273.418ZM41.6189 273.61C40.4669 273.61 39.5229 273.237 38.7869 272.49C38.0509 271.733 37.6829 270.752 37.6829 269.546C37.6829 268.416 38.0456 267.461 38.7709 266.682C39.4962 265.893 40.4029 265.498 41.4909 265.498C42.6322 265.498 43.5336 265.893 44.1949 266.682C44.8669 267.461 45.2029 268.448 45.2029 269.642V269.946H38.9469C39.0002 270.704 39.2776 271.338 39.7789 271.85C40.2802 272.362 40.9309 272.618 41.7309 272.618C42.6909 272.618 43.4856 272.293 44.1149 271.642L44.6909 272.426C43.9016 273.216 42.8776 273.61 41.6189 273.61ZM44.0189 269.066C44.0082 268.405 43.7842 267.813 43.3469 267.29C42.9096 266.757 42.2856 266.49 41.4749 266.49C40.7069 266.49 40.0989 266.752 39.6509 267.274C39.2136 267.797 38.9789 268.394 38.9469 269.066H44.0189ZM53.1785 273.418H51.9785V272.538C51.3279 273.253 50.4745 273.61 49.4185 273.61C48.7039 273.61 48.0745 273.381 47.5305 272.922C46.9865 272.464 46.7145 271.84 46.7145 271.05C46.7145 270.24 46.9812 269.616 47.5145 269.178C48.0585 268.73 48.6932 268.506 49.4185 268.506C50.5172 268.506 51.3705 268.858 51.9785 269.562V268.17C51.9785 267.658 51.7972 267.258 51.4345 266.97C51.0719 266.682 50.6025 266.538 50.0265 266.538C49.1199 266.538 48.3305 266.896 47.6585 267.61L47.0985 266.778C47.9199 265.925 48.9492 265.498 50.1865 265.498C51.0719 265.498 51.7919 265.712 52.3465 266.138C52.9012 266.565 53.1785 267.221 53.1785 268.106V273.418ZM49.8505 272.746C50.8105 272.746 51.5199 272.426 51.9785 271.786V270.33C51.5199 269.69 50.8105 269.37 49.8505 269.37C49.2959 269.37 48.8372 269.53 48.4745 269.85C48.1225 270.16 47.9465 270.565 47.9465 271.066C47.9465 271.557 48.1225 271.962 48.4745 272.282C48.8372 272.592 49.2959 272.746 49.8505 272.746ZM57.536 273.61C56.9707 273.61 56.544 273.456 56.256 273.146C55.968 272.837 55.824 272.389 55.824 271.802V266.746H54.544V265.69H55.824V263.578H57.024V265.69H58.592V266.746H57.024V271.546C57.024 271.845 57.088 272.085 57.216 272.266C57.3547 272.448 57.552 272.538 57.808 272.538C58.16 272.538 58.432 272.432 58.624 272.218L58.976 273.114C58.624 273.445 58.144 273.61 57.536 273.61ZM63.7752 273.61C62.6232 273.61 61.6792 273.237 60.9432 272.49C60.2072 271.733 59.8392 270.752 59.8392 269.546C59.8392 268.416 60.2018 267.461 60.9272 266.682C61.6525 265.893 62.5592 265.498 63.6472 265.498C64.7885 265.498 65.6898 265.893 66.3512 266.682C67.0232 267.461 67.3592 268.448 67.3592 269.642V269.946H61.1032C61.1565 270.704 61.4338 271.338 61.9352 271.85C62.4365 272.362 63.0872 272.618 63.8872 272.618C64.8472 272.618 65.6418 272.293 66.2712 271.642L66.8472 272.426C66.0578 273.216 65.0338 273.61 63.7752 273.61ZM66.1752 269.066C66.1645 268.405 65.9405 267.813 65.5032 267.29C65.0658 266.757 64.4418 266.49 63.6312 266.49C62.8632 266.49 62.2552 266.752 61.8072 267.274C61.3698 267.797 61.1352 268.394 61.1032 269.066H66.1752ZM79.4598 273.418H78.2598V272.538C77.6091 273.253 76.7558 273.61 75.6998 273.61C74.9851 273.61 74.3558 273.381 73.8118 272.922C73.2678 272.464 72.9958 271.84 72.9958 271.05C72.9958 270.24 73.2624 269.616 73.7958 269.178C74.3398 268.73 74.9744 268.506 75.6998 268.506C76.7985 268.506 77.6518 268.858 78.2598 269.562V268.17C78.2598 267.658 78.0785 267.258 77.7158 266.97C77.3531 266.682 76.8838 266.538 76.3078 266.538C75.4011 266.538 74.6118 266.896 73.9398 267.61L73.3798 266.778C74.2011 265.925 75.2304 265.498 76.4678 265.498C77.3531 265.498 78.0731 265.712 78.6278 266.138C79.1825 266.565 79.4598 267.221 79.4598 268.106V273.418ZM76.1318 272.746C77.0918 272.746 77.8011 272.426 78.2598 271.786V270.33C77.8011 269.69 77.0918 269.37 76.1318 269.37C75.5771 269.37 75.1184 269.53 74.7558 269.85C74.4038 270.16 74.2278 270.565 74.2278 271.066C74.2278 271.557 74.4038 271.962 74.7558 272.282C75.1184 272.592 75.5771 272.746 76.1318 272.746ZM88.2813 273.418H87.0813V268.362C87.0813 267.712 86.932 267.253 86.6333 266.986C86.3346 266.709 85.908 266.57 85.3533 266.57C84.9053 266.57 84.468 266.688 84.0413 266.922C83.6253 267.157 83.2999 267.44 83.0653 267.77V273.418H81.8653V265.69H83.0653V266.81C83.3639 266.458 83.7639 266.154 84.2653 265.898C84.7666 265.632 85.284 265.498 85.8173 265.498C87.46 265.498 88.2813 266.33 88.2813 267.994V273.418ZM97.4778 273.418H96.2778V272.266C95.6164 273.162 94.7471 273.61 93.6698 273.61C92.6458 273.61 91.8138 273.248 91.1738 272.522C90.5444 271.786 90.2298 270.8 90.2298 269.562C90.2298 268.336 90.5444 267.354 91.1738 266.618C91.8138 265.872 92.6458 265.498 93.6698 265.498C94.7365 265.498 95.6058 265.952 96.2778 266.858V262.746H97.4778V273.418ZM93.9578 272.538C94.4271 272.538 94.8751 272.421 95.3018 272.186C95.7285 271.952 96.0538 271.664 96.2778 271.322V267.818C96.0538 267.466 95.7231 267.173 95.2858 266.938C94.8591 266.693 94.4165 266.57 93.9578 266.57C93.2004 266.57 92.5978 266.853 92.1498 267.418C91.7018 267.973 91.4778 268.688 91.4778 269.562C91.4778 270.437 91.7018 271.152 92.1498 271.706C92.5978 272.261 93.2004 272.538 93.9578 272.538ZM114.534 273.418H113.334V268.17C113.334 267.104 112.859 266.57 111.91 266.57C111.526 266.57 111.142 266.688 110.758 266.922C110.374 267.157 110.075 267.434 109.862 267.754V273.418H108.662V268.17C108.662 267.104 108.187 266.57 107.238 266.57C106.865 266.57 106.486 266.688 106.102 266.922C105.729 267.157 105.43 267.44 105.206 267.77V273.418H104.006V265.69H105.206V266.81C105.398 266.512 105.734 266.218 106.214 265.93C106.694 265.642 107.19 265.498 107.702 265.498C108.267 265.498 108.726 265.632 109.078 265.898C109.43 266.165 109.665 266.512 109.782 266.938C110.017 266.554 110.374 266.218 110.854 265.93C111.334 265.642 111.841 265.498 112.374 265.498C113.814 265.498 114.534 266.277 114.534 267.834V273.418ZM122.96 273.418H121.76V272.538C121.109 273.253 120.256 273.61 119.2 273.61C118.485 273.61 117.856 273.381 117.312 272.922C116.768 272.464 116.496 271.84 116.496 271.05C116.496 270.24 116.762 269.616 117.296 269.178C117.84 268.73 118.474 268.506 119.2 268.506C120.298 268.506 121.152 268.858 121.76 269.562V268.17C121.76 267.658 121.578 267.258 121.216 266.97C120.853 266.682 120.384 266.538 119.808 266.538C118.901 266.538 118.112 266.896 117.44 267.61L116.88 266.778C117.701 265.925 118.73 265.498 119.968 265.498C120.853 265.498 121.573 265.712 122.128 266.138C122.682 266.565 122.96 267.221 122.96 268.106V273.418ZM119.632 272.746C120.592 272.746 121.301 272.426 121.76 271.786V270.33C121.301 269.69 120.592 269.37 119.632 269.37C119.077 269.37 118.618 269.53 118.256 269.85C117.904 270.16 117.728 270.565 117.728 271.066C117.728 271.557 117.904 271.962 118.256 272.282C118.618 272.592 119.077 272.746 119.632 272.746ZM131.781 273.418H130.581V268.362C130.581 267.712 130.432 267.253 130.133 266.986C129.835 266.709 129.408 266.57 128.853 266.57C128.405 266.57 127.968 266.688 127.541 266.922C127.125 267.157 126.8 267.44 126.565 267.77V273.418H125.365V265.69H126.565V266.81C126.864 266.458 127.264 266.154 127.765 265.898C128.267 265.632 128.784 265.498 129.317 265.498C130.96 265.498 131.781 266.33 131.781 267.994V273.418ZM140.21 273.418H139.01V272.538C138.359 273.253 137.506 273.61 136.45 273.61C135.735 273.61 135.106 273.381 134.562 272.922C134.018 272.464 133.746 271.84 133.746 271.05C133.746 270.24 134.012 269.616 134.546 269.178C135.09 268.73 135.724 268.506 136.45 268.506C137.548 268.506 138.402 268.858 139.01 269.562V268.17C139.01 267.658 138.828 267.258 138.466 266.97C138.103 266.682 137.634 266.538 137.058 266.538C136.151 266.538 135.362 266.896 134.69 267.61L134.13 266.778C134.951 265.925 135.98 265.498 137.218 265.498C138.103 265.498 138.823 265.712 139.378 266.138C139.932 266.565 140.21 267.221 140.21 268.106V273.418ZM136.882 272.746C137.842 272.746 138.551 272.426 139.01 271.786V270.33C138.551 269.69 137.842 269.37 136.882 269.37C136.327 269.37 135.868 269.53 135.506 269.85C135.154 270.16 134.978 270.565 134.978 271.066C134.978 271.557 135.154 271.962 135.506 272.282C135.868 272.592 136.327 272.746 136.882 272.746ZM145.719 276.554C145.037 276.554 144.455 276.469 143.975 276.298C143.495 276.138 143.037 275.84 142.599 275.402L143.207 274.506C143.794 275.21 144.631 275.562 145.719 275.562C146.434 275.562 147.026 275.37 147.495 274.986C147.965 274.613 148.199 274.032 148.199 273.242V272.138C147.911 272.544 147.538 272.874 147.079 273.13C146.621 273.386 146.13 273.514 145.607 273.514C144.583 273.514 143.751 273.157 143.111 272.442C142.482 271.717 142.167 270.741 142.167 269.514C142.167 268.288 142.482 267.312 143.111 266.586C143.751 265.861 144.583 265.498 145.607 265.498C146.663 265.498 147.527 265.952 148.199 266.858V265.69H149.399V273.194C149.399 274.378 149.053 275.232 148.359 275.754C147.666 276.288 146.786 276.554 145.719 276.554ZM145.895 272.458C146.354 272.458 146.797 272.336 147.223 272.09C147.661 271.845 147.986 271.546 148.199 271.194V267.818C147.986 267.466 147.666 267.173 147.239 266.938C146.813 266.693 146.365 266.57 145.895 266.57C145.127 266.57 144.519 266.842 144.071 267.386C143.634 267.93 143.415 268.64 143.415 269.514C143.415 270.378 143.639 271.088 144.087 271.642C144.535 272.186 145.138 272.458 145.895 272.458ZM155.291 273.61C154.139 273.61 153.195 273.237 152.459 272.49C151.723 271.733 151.355 270.752 151.355 269.546C151.355 268.416 151.717 267.461 152.443 266.682C153.168 265.893 154.075 265.498 155.163 265.498C156.304 265.498 157.205 265.893 157.867 266.682C158.539 267.461 158.875 268.448 158.875 269.642V269.946H152.619C152.672 270.704 152.949 271.338 153.451 271.85C153.952 272.362 154.603 272.618 155.403 272.618C156.363 272.618 157.157 272.293 157.787 271.642L158.363 272.426C157.573 273.216 156.549 273.61 155.291 273.61ZM157.691 269.066C157.68 268.405 157.456 267.813 157.019 267.29C156.581 266.757 155.957 266.49 155.147 266.49C154.379 266.49 153.771 266.752 153.323 267.274C152.885 267.797 152.651 268.394 152.619 269.066H157.691ZM164.511 276.442L164.703 275.354C164.895 275.44 165.114 275.482 165.359 275.482C165.637 275.482 165.866 275.424 166.047 275.306C166.229 275.189 166.383 274.976 166.511 274.666L167.023 273.498L163.791 265.69H165.087L167.663 272.026L170.223 265.69H171.535L167.663 274.986C167.237 276.01 166.479 276.533 165.391 276.554C165.071 276.554 164.778 276.517 164.511 276.442ZM178.931 272.442C178.238 273.221 177.315 273.61 176.163 273.61C175.011 273.61 174.083 273.221 173.379 272.442C172.686 271.664 172.339 270.698 172.339 269.546C172.339 268.394 172.686 267.434 173.379 266.666C174.083 265.888 175.011 265.498 176.163 265.498C177.315 265.498 178.238 265.888 178.931 266.666C179.635 267.434 179.987 268.394 179.987 269.546C179.987 270.698 179.635 271.664 178.931 272.442ZM174.275 271.674C174.744 272.25 175.374 272.538 176.163 272.538C176.952 272.538 177.576 272.25 178.035 271.674C178.494 271.088 178.723 270.378 178.723 269.546C178.723 268.714 178.494 268.01 178.035 267.434C177.576 266.858 176.952 266.57 176.163 266.57C175.374 266.57 174.744 266.864 174.275 267.45C173.816 268.026 173.587 268.725 173.587 269.546C173.587 270.378 173.816 271.088 174.275 271.674ZM188.359 273.418H187.159V272.33C186.839 272.693 186.434 272.997 185.943 273.242C185.463 273.488 184.951 273.61 184.407 273.61C182.765 273.61 181.943 272.789 181.943 271.146V265.69H183.143V270.778C183.143 271.418 183.287 271.872 183.575 272.138C183.874 272.405 184.306 272.538 184.871 272.538C185.319 272.538 185.751 272.426 186.167 272.202C186.594 271.978 186.925 271.701 187.159 271.37V265.69H188.359V273.418ZM191.956 273.418H190.756V265.69H191.956V266.938C192.671 266 193.529 265.53 194.532 265.53V266.762C194.383 266.73 194.223 266.714 194.052 266.714C193.689 266.714 193.295 266.842 192.868 267.098C192.441 267.354 192.137 267.637 191.956 267.946V273.418ZM206.306 272.442C205.613 273.221 204.69 273.61 203.538 273.61C202.386 273.61 201.458 273.221 200.754 272.442C200.061 271.664 199.714 270.698 199.714 269.546C199.714 268.394 200.061 267.434 200.754 266.666C201.458 265.888 202.386 265.498 203.538 265.498C204.69 265.498 205.613 265.888 206.306 266.666C207.01 267.434 207.362 268.394 207.362 269.546C207.362 270.698 207.01 271.664 206.306 272.442ZM201.65 271.674C202.119 272.25 202.749 272.538 203.538 272.538C204.327 272.538 204.951 272.25 205.41 271.674C205.869 271.088 206.098 270.378 206.098 269.546C206.098 268.714 205.869 268.01 205.41 267.434C204.951 266.858 204.327 266.57 203.538 266.57C202.749 266.57 202.119 266.864 201.65 267.45C201.191 268.026 200.962 268.725 200.962 269.546C200.962 270.378 201.191 271.088 201.65 271.674ZM217.206 273.418H216.006L213.99 267.21L211.974 273.418H210.774L208.31 265.69H209.558L211.446 271.85L213.478 265.69H214.502L216.534 271.85L218.422 265.69H219.67L217.206 273.418ZM227.484 273.418H226.284V268.362C226.284 267.712 226.135 267.253 225.836 266.986C225.538 266.709 225.111 266.57 224.556 266.57C224.108 266.57 223.671 266.688 223.244 266.922C222.828 267.157 222.503 267.44 222.268 267.77V273.418H221.068V265.69H222.268V266.81C222.567 266.458 222.967 266.154 223.468 265.898C223.97 265.632 224.487 265.498 225.02 265.498C226.663 265.498 227.484 266.33 227.484 267.994V273.418ZM240.806 273.418H239.606V272.266C238.945 273.162 238.075 273.61 236.998 273.61C235.974 273.61 235.142 273.248 234.502 272.522C233.873 271.786 233.558 270.8 233.558 269.562C233.558 268.336 233.873 267.354 234.502 266.618C235.142 265.872 235.974 265.498 236.998 265.498C238.065 265.498 238.934 265.952 239.606 266.858V262.746H240.806V273.418ZM237.286 272.538C237.755 272.538 238.203 272.421 238.63 272.186C239.057 271.952 239.382 271.664 239.606 271.322V267.818C239.382 267.466 239.051 267.173 238.614 266.938C238.187 266.693 237.745 266.57 237.286 266.57C236.529 266.57 235.926 266.853 235.478 267.418C235.03 267.973 234.806 268.688 234.806 269.562C234.806 270.437 235.03 271.152 235.478 271.706C235.926 272.261 236.529 272.538 237.286 272.538ZM243.801 264.586C243.588 264.586 243.401 264.512 243.241 264.362C243.081 264.202 243.001 264.01 243.001 263.786C243.001 263.562 243.081 263.37 243.241 263.21C243.401 263.05 243.588 262.97 243.801 262.97C244.025 262.97 244.217 263.05 244.377 263.21C244.537 263.37 244.617 263.562 244.617 263.786C244.617 264.01 244.537 264.202 244.377 264.362C244.217 264.512 244.025 264.586 243.801 264.586ZM244.409 273.418H243.209V265.69H244.409V273.418ZM249.907 276.554C249.224 276.554 248.643 276.469 248.163 276.298C247.683 276.138 247.224 275.84 246.787 275.402L247.395 274.506C247.981 275.21 248.819 275.562 249.907 275.562C250.621 275.562 251.213 275.37 251.683 274.986C252.152 274.613 252.387 274.032 252.387 273.242V272.138C252.099 272.544 251.725 272.874 251.267 273.13C250.808 273.386 250.317 273.514 249.795 273.514C248.771 273.514 247.939 273.157 247.299 272.442C246.669 271.717 246.355 270.741 246.355 269.514C246.355 268.288 246.669 267.312 247.299 266.586C247.939 265.861 248.771 265.498 249.795 265.498C250.851 265.498 251.715 265.952 252.387 266.858V265.69H253.587V273.194C253.587 274.378 253.24 275.232 252.547 275.754C251.853 276.288 250.973 276.554 249.907 276.554ZM250.083 272.458C250.541 272.458 250.984 272.336 251.411 272.09C251.848 271.845 252.173 271.546 252.387 271.194V267.818C252.173 267.466 251.853 267.173 251.427 266.938C251 266.693 250.552 266.57 250.083 266.57C249.315 266.57 248.707 266.842 248.259 267.386C247.821 267.93 247.603 268.64 247.603 269.514C247.603 270.378 247.827 271.088 248.275 271.642C248.723 272.186 249.325 272.458 250.083 272.458ZM256.582 264.586C256.369 264.586 256.182 264.512 256.022 264.362C255.862 264.202 255.782 264.01 255.782 263.786C255.782 263.562 255.862 263.37 256.022 263.21C256.182 263.05 256.369 262.97 256.582 262.97C256.806 262.97 256.998 263.05 257.158 263.21C257.318 263.37 257.398 263.562 257.398 263.786C257.398 264.01 257.318 264.202 257.158 264.362C256.998 264.512 256.806 264.586 256.582 264.586ZM257.19 273.418H255.99V265.69H257.19V273.418ZM261.536 273.61C260.971 273.61 260.544 273.456 260.256 273.146C259.968 272.837 259.824 272.389 259.824 271.802V266.746H258.544V265.69H259.824V263.578H261.024V265.69H262.592V266.746H261.024V271.546C261.024 271.845 261.088 272.085 261.216 272.266C261.355 272.448 261.552 272.538 261.808 272.538C262.16 272.538 262.432 272.432 262.624 272.218L262.976 273.114C262.624 273.445 262.144 273.61 261.536 273.61ZM270.319 273.418H269.119V272.538C268.468 273.253 267.615 273.61 266.559 273.61C265.844 273.61 265.215 273.381 264.671 272.922C264.127 272.464 263.855 271.84 263.855 271.05C263.855 270.24 264.122 269.616 264.655 269.178C265.199 268.73 265.834 268.506 266.559 268.506C267.658 268.506 268.511 268.858 269.119 269.562V268.17C269.119 267.658 268.938 267.258 268.575 266.97C268.212 266.682 267.743 266.538 267.167 266.538C266.26 266.538 265.471 266.896 264.799 267.61L264.239 266.778C265.06 265.925 266.09 265.498 267.327 265.498C268.212 265.498 268.932 265.712 269.487 266.138C270.042 266.565 270.319 267.221 270.319 268.106V273.418ZM266.991 272.746C267.951 272.746 268.66 272.426 269.119 271.786V270.33C268.66 269.69 267.951 269.37 266.991 269.37C266.436 269.37 265.978 269.53 265.615 269.85C265.263 270.16 265.087 270.565 265.087 271.066C265.087 271.557 265.263 271.962 265.615 272.282C265.978 272.592 266.436 272.746 266.991 272.746ZM273.925 273.418H272.725V262.746H273.925V273.418ZM286.475 273.418H285.275V272.538C284.625 273.253 283.771 273.61 282.715 273.61C282.001 273.61 281.371 273.381 280.827 272.922C280.283 272.464 280.011 271.84 280.011 271.05C280.011 270.24 280.278 269.616 280.811 269.178C281.355 268.73 281.99 268.506 282.715 268.506C283.814 268.506 284.667 268.858 285.275 269.562V268.17C285.275 267.658 285.094 267.258 284.731 266.97C284.369 266.682 283.899 266.538 283.323 266.538C282.417 266.538 281.627 266.896 280.955 267.61L280.395 266.778C281.217 265.925 282.246 265.498 283.483 265.498C284.369 265.498 285.089 265.712 285.643 266.138C286.198 266.565 286.475 267.221 286.475 268.106V273.418ZM283.147 272.746C284.107 272.746 284.817 272.426 285.275 271.786V270.33C284.817 269.69 284.107 269.37 283.147 269.37C282.593 269.37 282.134 269.53 281.771 269.85C281.419 270.16 281.243 270.565 281.243 271.066C281.243 271.557 281.419 271.962 281.771 272.282C282.134 272.592 282.593 272.746 283.147 272.746ZM291.329 273.61C290.017 273.61 288.977 273.205 288.209 272.394L288.833 271.53C289.1 271.84 289.462 272.101 289.921 272.314C290.39 272.528 290.876 272.634 291.377 272.634C291.953 272.634 292.401 272.512 292.721 272.266C293.041 272.021 293.201 271.701 293.201 271.306C293.201 270.965 293.036 270.698 292.705 270.506C292.374 270.304 291.974 270.154 291.505 270.058C291.046 269.952 290.582 269.834 290.113 269.706C289.644 269.568 289.244 269.338 288.913 269.018C288.582 268.688 288.417 268.256 288.417 267.722C288.417 267.093 288.673 266.565 289.185 266.138C289.708 265.712 290.412 265.498 291.297 265.498C292.46 265.498 293.414 265.872 294.161 266.618L293.601 267.45C293.057 266.8 292.289 266.474 291.297 266.474C290.774 266.474 290.358 266.592 290.049 266.826C289.74 267.05 289.585 267.338 289.585 267.69C289.585 268 289.75 268.245 290.081 268.426C290.412 268.597 290.806 268.736 291.265 268.842C291.734 268.938 292.204 269.056 292.673 269.194C293.142 269.333 293.542 269.578 293.873 269.93C294.204 270.272 294.369 270.72 294.369 271.274C294.369 271.957 294.102 272.517 293.569 272.954C293.036 273.392 292.289 273.61 291.329 273.61ZM298.766 273.61C297.454 273.61 296.414 273.205 295.646 272.394L296.27 271.53C296.537 271.84 296.9 272.101 297.358 272.314C297.828 272.528 298.313 272.634 298.814 272.634C299.39 272.634 299.838 272.512 300.158 272.266C300.478 272.021 300.638 271.701 300.638 271.306C300.638 270.965 300.473 270.698 300.142 270.506C299.812 270.304 299.412 270.154 298.942 270.058C298.484 269.952 298.02 269.834 297.55 269.706C297.081 269.568 296.681 269.338 296.35 269.018C296.02 268.688 295.854 268.256 295.854 267.722C295.854 267.093 296.11 266.565 296.622 266.138C297.145 265.712 297.849 265.498 298.734 265.498C299.897 265.498 300.852 265.872 301.598 266.618L301.038 267.45C300.494 266.8 299.726 266.474 298.734 266.474C298.212 266.474 297.796 266.592 297.486 266.826C297.177 267.05 297.022 267.338 297.022 267.69C297.022 268 297.188 268.245 297.518 268.426C297.849 268.597 298.244 268.736 298.702 268.842C299.172 268.938 299.641 269.056 300.11 269.194C300.58 269.333 300.98 269.578 301.31 269.93C301.641 270.272 301.806 270.72 301.806 271.274C301.806 271.957 301.54 272.517 301.006 272.954C300.473 273.392 299.726 273.61 298.766 273.61ZM307.244 273.61C306.092 273.61 305.148 273.237 304.412 272.49C303.676 271.733 303.308 270.752 303.308 269.546C303.308 268.416 303.671 267.461 304.396 266.682C305.121 265.893 306.028 265.498 307.116 265.498C308.257 265.498 309.159 265.893 309.82 266.682C310.492 267.461 310.828 268.448 310.828 269.642V269.946H304.572C304.625 270.704 304.903 271.338 305.404 271.85C305.905 272.362 306.556 272.618 307.356 272.618C308.316 272.618 309.111 272.293 309.74 271.642L310.316 272.426C309.527 273.216 308.503 273.61 307.244 273.61ZM309.644 269.066C309.633 268.405 309.409 267.813 308.972 267.29C308.535 266.757 307.911 266.49 307.1 266.49C306.332 266.49 305.724 266.752 305.276 267.274C304.839 267.797 304.604 268.394 304.572 269.066H309.644ZM314.724 273.61C314.158 273.61 313.732 273.456 313.444 273.146C313.156 272.837 313.012 272.389 313.012 271.802V266.746H311.732V265.69H313.012V263.578H314.212V265.69H315.78V266.746H314.212V271.546C314.212 271.845 314.276 272.085 314.404 272.266C314.542 272.448 314.74 272.538 314.996 272.538C315.348 272.538 315.62 272.432 315.812 272.218L316.164 273.114C315.812 273.445 315.332 273.61 314.724 273.61ZM319.923 273.61C318.611 273.61 317.571 273.205 316.803 272.394L317.427 271.53C317.693 271.84 318.056 272.101 318.515 272.314C318.984 272.528 319.469 272.634 319.971 272.634C320.547 272.634 320.995 272.512 321.315 272.266C321.635 272.021 321.795 271.701 321.795 271.306C321.795 270.965 321.629 270.698 321.299 270.506C320.968 270.304 320.568 270.154 320.099 270.058C319.64 269.952 319.176 269.834 318.707 269.706C318.237 269.568 317.837 269.338 317.507 269.018C317.176 268.688 317.011 268.256 317.011 267.722C317.011 267.093 317.267 266.565 317.779 266.138C318.301 265.712 319.005 265.498 319.891 265.498C321.053 265.498 322.008 265.872 322.755 266.618L322.195 267.45C321.651 266.8 320.883 266.474 319.891 266.474C319.368 266.474 318.952 266.592 318.643 266.826C318.333 267.05 318.179 267.338 318.179 267.69C318.179 268 318.344 268.245 318.675 268.426C319.005 268.597 319.4 268.736 319.859 268.842C320.328 268.938 320.797 269.056 321.267 269.194C321.736 269.333 322.136 269.578 322.467 269.93C322.797 270.272 322.963 270.72 322.963 271.274C322.963 271.957 322.696 272.517 322.163 272.954C321.629 273.392 320.883 273.61 319.923 273.61ZM332.525 273.61C331.373 273.61 330.429 273.237 329.693 272.49C328.957 271.733 328.589 270.752 328.589 269.546C328.589 268.416 328.952 267.461 329.677 266.682C330.402 265.893 331.309 265.498 332.397 265.498C333.538 265.498 334.44 265.893 335.101 266.682C335.773 267.461 336.109 268.448 336.109 269.642V269.946H329.853C329.906 270.704 330.184 271.338 330.685 271.85C331.186 272.362 331.837 272.618 332.637 272.618C333.597 272.618 334.392 272.293 335.021 271.642L335.597 272.426C334.808 273.216 333.784 273.61 332.525 273.61ZM334.925 269.066C334.914 268.405 334.69 267.813 334.253 267.29C333.816 266.757 333.192 266.49 332.381 266.49C331.613 266.49 331.005 266.752 330.557 267.274C330.12 267.797 329.885 268.394 329.853 269.066H334.925ZM339.589 273.418H338.389V266.746H337.109V265.69H338.389V265.098C338.389 264.309 338.586 263.696 338.981 263.258C339.386 262.81 339.935 262.586 340.629 262.586C341.29 262.586 341.834 262.784 342.261 263.178L341.765 263.962C341.477 263.706 341.157 263.578 340.805 263.578C340.41 263.578 340.106 263.712 339.893 263.978C339.69 264.234 339.589 264.608 339.589 265.098V265.69H341.157V266.746H339.589V273.418ZM344.117 273.418H342.917V266.746H341.637V265.69H342.917V265.098C342.917 264.309 343.114 263.696 343.509 263.258C343.914 262.81 344.463 262.586 345.157 262.586C345.818 262.586 346.362 262.784 346.789 263.178L346.293 263.962C346.005 263.706 345.685 263.578 345.333 263.578C344.938 263.578 344.634 263.712 344.421 263.978C344.218 264.234 344.117 264.608 344.117 265.098V265.69H345.685V266.746H344.117V273.418ZM353.275 272.442C352.582 273.221 351.659 273.61 350.507 273.61C349.355 273.61 348.427 273.221 347.723 272.442C347.03 271.664 346.683 270.698 346.683 269.546C346.683 268.394 347.03 267.434 347.723 266.666C348.427 265.888 349.355 265.498 350.507 265.498C351.659 265.498 352.582 265.888 353.275 266.666C353.979 267.434 354.331 268.394 354.331 269.546C354.331 270.698 353.979 271.664 353.275 272.442ZM348.619 271.674C349.088 272.25 349.718 272.538 350.507 272.538C351.296 272.538 351.92 272.25 352.379 271.674C352.838 271.088 353.067 270.378 353.067 269.546C353.067 268.714 352.838 268.01 352.379 267.434C351.92 266.858 351.296 266.57 350.507 266.57C349.718 266.57 349.088 266.864 348.619 267.45C348.16 268.026 347.931 268.725 347.931 269.546C347.931 270.378 348.16 271.088 348.619 271.674ZM357.487 273.418H356.287V265.69H357.487V266.938C358.202 266 359.06 265.53 360.063 265.53V266.762C359.914 266.73 359.754 266.714 359.583 266.714C359.22 266.714 358.826 266.842 358.399 267.098C357.972 267.354 357.668 267.637 357.487 267.946V273.418ZM363.52 273.61C362.955 273.61 362.528 273.456 362.24 273.146C361.952 272.837 361.808 272.389 361.808 271.802V266.746H360.528V265.69H361.808V263.578H363.008V265.69H364.576V266.746H363.008V271.546C363.008 271.845 363.072 272.085 363.2 272.266C363.339 272.448 363.536 272.538 363.792 272.538C364.144 272.538 364.416 272.432 364.608 272.218L364.96 273.114C364.608 273.445 364.128 273.61 363.52 273.61ZM367.472 273.418H366.272V262.746H367.472V273.418ZM373.353 273.61C372.201 273.61 371.257 273.237 370.521 272.49C369.785 271.733 369.417 270.752 369.417 269.546C369.417 268.416 369.78 267.461 370.505 266.682C371.231 265.893 372.137 265.498 373.225 265.498C374.367 265.498 375.268 265.893 375.929 266.682C376.601 267.461 376.937 268.448 376.937 269.642V269.946H370.681C370.735 270.704 371.012 271.338 371.513 271.85C372.015 272.362 372.665 272.618 373.465 272.618C374.425 272.618 375.22 272.293 375.849 271.642L376.425 272.426C375.636 273.216 374.612 273.61 373.353 273.61ZM375.753 269.066C375.743 268.405 375.519 267.813 375.081 267.29C374.644 266.757 374.02 266.49 373.209 266.49C372.441 266.49 371.833 266.752 371.385 267.274C370.948 267.797 370.713 268.394 370.681 269.066H375.753ZM381.329 273.61C380.017 273.61 378.977 273.205 378.209 272.394L378.833 271.53C379.1 271.84 379.462 272.101 379.921 272.314C380.39 272.528 380.876 272.634 381.377 272.634C381.953 272.634 382.401 272.512 382.721 272.266C383.041 272.021 383.201 271.701 383.201 271.306C383.201 270.965 383.036 270.698 382.705 270.506C382.374 270.304 381.974 270.154 381.505 270.058C381.046 269.952 380.582 269.834 380.113 269.706C379.644 269.568 379.244 269.338 378.913 269.018C378.582 268.688 378.417 268.256 378.417 267.722C378.417 267.093 378.673 266.565 379.185 266.138C379.708 265.712 380.412 265.498 381.297 265.498C382.46 265.498 383.414 265.872 384.161 266.618L383.601 267.45C383.057 266.8 382.289 266.474 381.297 266.474C380.774 266.474 380.358 266.592 380.049 266.826C379.74 267.05 379.585 267.338 379.585 267.69C379.585 268 379.75 268.245 380.081 268.426C380.412 268.597 380.806 268.736 381.265 268.842C381.734 268.938 382.204 269.056 382.673 269.194C383.142 269.333 383.542 269.578 383.873 269.93C384.204 270.272 384.369 270.72 384.369 271.274C384.369 271.957 384.102 272.517 383.569 272.954C383.036 273.392 382.289 273.61 381.329 273.61ZM388.766 273.61C387.454 273.61 386.414 273.205 385.646 272.394L386.27 271.53C386.537 271.84 386.9 272.101 387.358 272.314C387.828 272.528 388.313 272.634 388.814 272.634C389.39 272.634 389.838 272.512 390.158 272.266C390.478 272.021 390.638 271.701 390.638 271.306C390.638 270.965 390.473 270.698 390.142 270.506C389.812 270.304 389.412 270.154 388.942 270.058C388.484 269.952 388.02 269.834 387.55 269.706C387.081 269.568 386.681 269.338 386.35 269.018C386.02 268.688 385.854 268.256 385.854 267.722C385.854 267.093 386.11 266.565 386.622 266.138C387.145 265.712 387.849 265.498 388.734 265.498C389.897 265.498 390.852 265.872 391.598 266.618L391.038 267.45C390.494 266.8 389.726 266.474 388.734 266.474C388.212 266.474 387.796 266.592 387.486 266.826C387.177 267.05 387.022 267.338 387.022 267.69C387.022 268 387.188 268.245 387.518 268.426C387.849 268.597 388.244 268.736 388.702 268.842C389.172 268.938 389.641 269.056 390.11 269.194C390.58 269.333 390.98 269.578 391.31 269.93C391.641 270.272 391.806 270.72 391.806 271.274C391.806 271.957 391.54 272.517 391.006 272.954C390.473 273.392 389.726 273.61 388.766 273.61ZM394.956 273.418H393.756V262.746H394.956V273.418ZM396.918 276.442L397.11 275.354C397.302 275.44 397.52 275.482 397.766 275.482C398.043 275.482 398.272 275.424 398.454 275.306C398.635 275.189 398.79 274.976 398.918 274.666L399.43 273.498L396.198 265.69H397.494L400.07 272.026L402.63 265.69H403.942L400.07 274.986C399.643 276.01 398.886 276.533 397.798 276.554C397.478 276.554 397.184 276.517 396.918 276.442Z" fill="#6B7385"/>
<path d="M487.337 234.178C487.337 234.178 495.432 233.545 496.572 234.685C497.712 235.824 497.078 243.919 497.078 243.919M496.087 235.169L484.42 246.836" stroke="#0B0F1A" stroke-width="1.75" stroke-linecap="round" stroke-linejoin="round"/>
</g>
<defs>
<filter id="filter0_d_958_172639" x="-5.10216e-05" y="-0.000147581" width="525.674" height="303.674" filterUnits="userSpaceOnUse" color-interpolation-filters="sRGB">
<feFlood flood-opacity="0" result="BackgroundImageFix"/>
<feColorMatrix in="SourceAlpha" type="matrix" values="0 0 0 0 0 0 0 0 0 0 0 0 0 0 0 0 0 0 127 0" result="hardAlpha"/>
<feOffset dy="2.4186"/>
<feGaussianBlur stdDeviation="2.4186"/>
<feComposite in2="hardAlpha" operator="out"/>
<feColorMatrix type="matrix" values="0 0 0 0 0 0 0 0 0 0 0 0 0 0 0 0 0 0 0.09 0"/>
<feBlend mode="normal" in2="BackgroundImageFix" result="effect1_dropShadow_958_172639"/>
<feBlend mode="normal" in="SourceGraphic" in2="effect1_dropShadow_958_172639" result="shape"/>
</filter>
<linearGradient id="paint0_linear_958_172639" x1="262.837" y1="8.41846" x2="262.837" y2="212.418" gradientUnits="userSpaceOnUse">
<stop stop-color="#8DAEFF"/>
<stop offset="1" stop-color="#2323FF"/>
</linearGradient>
<clipPath id="clip0_958_172639">
<rect x="10.8372" y="8.41846" width="504" height="204" rx="16" fill="white"/>
</clipPath>
</defs>
</svg>
